<?xml version="1.0" encoding="UTF-8" standalone="no"?>
<!DOCTYPE svg PUBLIC "-//W3C//DTD SVG 1.1//EN" "http://www.w3.org/Graphics/SVG/1.1/DTD/svg11.dtd">
<svg width="100%" height="100%" viewBox="-3 0 132 135" version="1.1" xmlns="http://www.w3.org/2000/svg" style="fill-rule:evenodd;clip-rule:evenodd;stroke-linejoin:round;stroke-miterlimit:2;">
    <g transform="matrix(1.02301,0,0,1.02301,-835.667,-780.895)">
        <g transform="matrix(0.977503,0,0,0.977503,816.867,763.327)">
            <path d="M269.836,134.718L269.836,93.163L296.409,93.163L296.409,102.02L278.694,102.02L278.694,113.26L294.194,113.26L294.194,122.118L278.694,122.118L278.694,134.718L269.836,134.718ZM300.837,134.718L300.837,93.163L314.123,93.163C322.981,93.163 327.409,97.592 327.409,106.449L327.409,108.832C327.409,112.581 326.612,115.534 325.018,117.689C326.612,119.844 327.409,122.797 327.409,126.547L327.409,134.718L318.552,134.718L318.552,126.547C318.552,123.594 317.076,122.118 314.123,122.118L309.695,122.118L309.695,134.718L300.837,134.718ZM29.949,0.381C49.14,0.381 58.736,9.977 58.736,29.168L58.736,55.741C58.736,74.932 49.14,84.527 29.949,84.527L20.354,84.527L20.354,134.718L1.163,134.718L1.163,0.381L29.949,0.381ZM164.286,0.381C183.477,0.381 193.073,9.977 193.073,29.168L173.882,29.168C173.882,22.771 170.683,19.572 164.286,19.572C157.889,19.572 154.691,22.771 154.691,29.168L154.691,105.932C154.691,112.329 157.889,115.527 164.286,115.527C170.683,115.527 173.882,112.329 173.882,105.932L193.073,105.932C193.073,125.123 183.477,134.718 164.286,134.718C145.095,134.718 135.5,125.123 135.5,105.932L135.5,29.168C135.5,9.977 145.095,0.381 164.286,0.381ZM68.331,55.741L68.331,0.381L87.522,0.381L87.522,55.741C87.522,62.138 90.721,65.336 97.118,65.336C103.515,65.336 106.713,62.138 106.713,55.741L106.713,0.381L125.904,0.381L125.904,55.741C125.904,71.413 119.507,80.689 106.713,83.568L106.713,134.718L87.522,134.718L87.522,83.568C74.728,80.689 68.331,71.413 68.331,55.741ZM202.668,29.168C202.668,9.977 212.264,0.381 231.455,0.381C250.645,0.381 260.241,9.977 260.241,29.168L260.241,105.932C260.241,125.123 250.645,134.718 231.455,134.718C212.264,134.718 202.668,125.123 202.668,105.932L202.668,29.168ZM231.455,19.572C225.058,19.572 221.859,22.771 221.859,29.168L221.859,105.932C221.859,112.329 225.058,115.527 231.455,115.527C237.852,115.527 241.05,112.329 241.05,105.932L241.05,29.168C241.05,22.771 237.852,19.572 231.455,19.572ZM318.552,106.449C318.552,103.497 317.076,102.02 314.123,102.02L309.695,102.02L309.695,113.26L314.123,113.26C317.076,113.26 318.552,111.784 318.552,108.832L318.552,106.449ZM289.027,29.168L289.027,83.568L269.836,83.568L269.836,29.168C269.836,9.977 279.432,0.381 298.623,0.381C317.814,0.381 327.409,9.977 327.409,29.168L327.409,83.568L308.218,83.568L308.218,29.168C308.218,22.771 305.02,19.572 298.623,19.572C292.226,19.572 289.027,22.771 289.027,29.168ZM39.545,29.168C39.545,22.771 36.346,19.572 29.949,19.572L20.354,19.572L20.354,65.336L29.949,65.336C36.346,65.336 39.545,62.138 39.545,55.741L39.545,29.168Z" style="fill:rgb(55,136,153);fill-rule:nonzero;"/>
        </g>
    </g>
</svg>
