<?xml version="1.0" encoding="utf-8"?>
<!-- Generator: Adobe Illustrator 16.0.3, SVG Export Plug-In . SVG Version: 6.00 Build 0)  -->
<!DOCTYPE svg PUBLIC "-//W3C//DTD SVG 1.1//EN" "http://www.w3.org/Graphics/SVG/1.1/DTD/svg11.dtd">
<svg version="1.1" id="Calque_1" xmlns="http://www.w3.org/2000/svg" xmlns:xlink="http://www.w3.org/1999/xlink" x="0px" y="0px"
	 width="375px" height="199px" viewBox="0 0 375 199" enable-background="new 0 0 375 199" xml:space="preserve">
<g>
	<path fill="#2A2239" d="M107.992,164.354c-10.845,0-15.403-7.604-15.403-15.101V92.191h13.174v56.25
		c0,3.142,1.316,4.764,4.665,4.764h5.064v11.148H107.992z"/>
	<path fill="#2A2239" d="M86.054,152.699c-3.078,0-4.422-1.389-4.623-4.057v-19.559c0-12.365-7.699-18.65-22.497-18.65
		c-8.819,0-13.887,1.621-19.056,7.297l8.412,8.208c2.737-3.14,5.068-4.355,10.136-4.355c6.995,0,9.831,2.535,9.831,8.312v2.635
		H55.792c-12.263,0-18.04,6.89-18.04,15.306c0,4.66,1.52,8.917,4.359,11.855c3.142,3.144,7.5,4.663,13.48,4.663
		c6.075,0,11.36-3.564,14.908-7.113c2.348,3.836,6.587,6.605,13.122,6.605h3.906v-11.146H86.054z M58.02,153.611
		c-5.167,0-7.598-2.436-7.598-6.085c0-3.748,2.636-5.977,7.398-5.977h10.395v4.242c-0.141,2.464-0.681,4.169-1.884,5.282
		C64,153.303,61.669,153.611,58.02,153.611z"/>
	<path fill="#2A2239" d="M186.157,164.354c-10.845,0-15.403-7.604-15.403-15.101v-23.327l13.175-14.376v36.892
		c0,3.142,1.316,4.764,4.664,4.764h1.471v11.148H186.157z"/>
	<path fill="#2A2239" d="M257.359,164.354c-10.845,0-15.403-7.604-15.403-15.101V111.55h13.175v36.892
		c0,3.142,1.316,4.764,4.664,4.764h1.471v11.148H257.359z"/>
	<path fill="#2A2239" d="M152.687,164.354l-12.975-21.994l-5.573,6.283v15.711h-13.175V92.191h13.175v40.946l17.533-21.588h15.913
		l-18.85,21.282l20.268,31.521H152.687z"/>
	<path fill="#2A2239" d="M218.147,164.354h-10.335L188.35,111.55h13.885l10.746,32.636l10.641-32.636h13.884L218.147,164.354z"/>
	<path fill="#2A2239" d="M184.757,99.354c0,4.103-3.324,7.422-7.424,7.422c-4.099,0-7.422-3.319-7.422-7.422
		c0-4.099,3.323-7.423,7.422-7.423C181.433,91.931,184.757,95.255,184.757,99.354z"/>
	<path fill="#2A2239" d="M255.85,97.672c0.929,3.996-1.556,7.982-5.548,8.911c-3.993,0.929-7.981-1.552-8.912-5.548
		c-0.929-3.991,1.556-7.982,5.549-8.911C250.93,91.195,254.921,93.68,255.85,97.672z"/>
	<path fill="#DD1915" d="M264.48,92.738c-2.955-7.071,10.846-19.572,30.835-27.926c19.982-8.357,38.575-9.399,41.536-2.334
		c2.951,7.072-10.853,19.57-30.836,27.93C286.031,98.761,267.436,99.807,264.48,92.738z"/>
	<path fill="#ABC413" d="M255.292,83.472c-4.741-1.938-4.136-14.382,1.358-27.803c5.49-13.409,13.787-22.708,18.53-20.766
		c4.74,1.946,4.137,14.391-1.354,27.8C268.335,76.12,260.036,85.415,255.292,83.472z"/>
	<path fill="#FED800" d="M242.064,83.304c-3.184,1.316-8.783-4.915-12.508-13.918c-3.726-9.005-4.16-17.366-0.977-18.682
		c3.185-1.318,8.78,4.914,12.509,13.913C244.81,73.622,245.249,81.987,242.064,83.304z"/>
	<path fill="#395DA6" d="M232.761,92.735c-0.975,2.39-7.253,2.075-14.009-0.697c-6.758-2.778-11.441-6.963-10.458-9.353
		c0.986-2.388,7.254-2.075,14.013,0.698C229.063,86.158,233.742,90.345,232.761,92.735z"/>
</g>
</svg>
