<svg xmlns="http://www.w3.org/2000/svg" viewBox="0 0 170.08 136.41"><defs><style>.a{fill:#e8403a;}</style></defs><title>Court Bouillon - Logotype Final</title><path class="a" d="M33,51a8.35,8.35,0,0,0,2.81,2.13,8.62,8.62,0,0,0,3.55.69,6.61,6.61,0,0,0,1.76-.24,8.07,8.07,0,0,0,1.74-.73,8.77,8.77,0,0,0,1.65-1.18A7.12,7.12,0,0,0,45.88,50L44,48.78a6,6,0,0,1-2.06,2.12,5,5,0,0,1-2.65.78A4.79,4.79,0,0,1,36.73,51a6.72,6.72,0,0,1-2-2,10.11,10.11,0,0,1-1.35-3.08,17,17,0,0,1,0-8,9.76,9.76,0,0,1,1.34-3,6.05,6.05,0,0,1,2-1.89A4.56,4.56,0,0,1,39,32.32a4.84,4.84,0,0,1,2.52.7,5.78,5.78,0,0,1,1.93,1.91,1.61,1.61,0,0,1,.11.66.43.43,0,0,0,.14.36l2.49-1.22A6.81,6.81,0,0,0,45,32.85a7.63,7.63,0,0,0-1.68-1.42,8.37,8.37,0,0,0-2-.93,7.76,7.76,0,0,0-2.25-.33,8.17,8.17,0,0,0-2.91.57,7.87,7.87,0,0,0-2.84,1.95,10,10,0,0,0-2.15,3.65A17.19,17.19,0,0,0,30.34,42a17.71,17.71,0,0,0,.7,5.31A10,10,0,0,0,33,51Z"/><path class="a" d="M98.19,49.19a12.73,12.73,0,0,0,.5-3.82v-15H96.2V45.43a9.51,9.51,0,0,1-.39,3.09,5.16,5.16,0,0,1-1.07,1.8,3.85,3.85,0,0,1-1.6,1,7.94,7.94,0,0,1-1.94.37,6.76,6.76,0,0,1-2-.41,4.14,4.14,0,0,1-1.58-1,4.83,4.83,0,0,1-1-1.74,9.7,9.7,0,0,1-.37-3v-14a2.15,2.15,0,0,1,.24-.69.85.85,0,0,0,.17-.43s0-.07,0-.07H83.7V45.48a11.49,11.49,0,0,0,.54,3.9,6.88,6.88,0,0,0,1.52,2.44,6.36,6.36,0,0,0,2.36,1.52,8.43,8.43,0,0,0,3,.52,8.58,8.58,0,0,0,3.08-.52,6.7,6.7,0,0,0,2.41-1.55A6.5,6.5,0,0,0,98.19,49.19Z"/><path class="a" d="M119.46,53.46l-5.34-10.31a5.63,5.63,0,0,0,1.94-.89,6.58,6.58,0,0,0,1.49-1.49,7.21,7.21,0,0,0,.94-1.83,6.26,6.26,0,0,0,.34-2,6.49,6.49,0,0,0-1.8-4.78q-1.8-1.82-5.88-1.82h-6.83V53.46H107V43.26h4.46l5.11,10.2ZM107,41V32.8h4.47a6.19,6.19,0,0,1,2.15.33A3.79,3.79,0,0,1,115,34a4,4,0,0,1,.83,1.3,4.33,4.33,0,0,1,.29,1.63,3.9,3.9,0,0,1-1.1,2.91,5,5,0,0,1-3.59,1.1Z"/><polygon class="a" points="139.85 30.31 123.8 30.31 123.8 32.65 130.36 32.65 130.36 53.46 133.03 53.46 133.03 32.65 139.85 32.65 139.85 30.31"/><path class="a" d="M14,78.93a7.32,7.32,0,0,0-1.39-1.39,6.12,6.12,0,0,0-1.76-1,4.72,4.72,0,0,0,2.52-2,5.76,5.76,0,0,0,.89-3.07,5.2,5.2,0,0,0-.48-2.24,5.49,5.49,0,0,0-1.37-1.79A5.81,5.81,0,0,0,10,66.28a13.6,13.6,0,0,0-3.47-.39H0V89H6.53q4.49,0,6.56-1.79a5.88,5.88,0,0,0,2.08-4.71,6,6,0,0,0-.3-1.88A5.6,5.6,0,0,0,14,78.93ZM2.56,68h4a7.41,7.41,0,0,1,2.28.3,4.59,4.59,0,0,1,1.51.8,3.07,3.07,0,0,1,.86,1.18,4.82,4.82,0,0,1,.35,1.45,4.81,4.81,0,0,1-.37,1.47,2.94,2.94,0,0,1-.9,1.18,4.58,4.58,0,0,1-1.6.76,9.43,9.43,0,0,1-2.54.28H2.56Zm8.61,17.45C10.39,86.32,9,86.73,7,86.73H2.56V77.61H6.37A10.08,10.08,0,0,1,9.19,78a4.42,4.42,0,0,1,1.87,1,4.28,4.28,0,0,1,1,1.51,6.61,6.61,0,0,1,.41,1.9A5,5,0,0,1,11.17,85.49Z"/><path class="a" d="M55.91,66.39a.89.89,0,0,0,.16-.42s0-.08,0-.08H53.11V81a11.45,11.45,0,0,0,.54,3.9,6.73,6.73,0,0,0,1.52,2.45,6.58,6.58,0,0,0,2.35,1.52,9.43,9.43,0,0,0,6.12,0,6.77,6.77,0,0,0,2.41-1.56,6.32,6.32,0,0,0,1.54-2.6,12.73,12.73,0,0,0,.5-3.82v-15H65.61V81a9.48,9.48,0,0,1-.39,3.08,5,5,0,0,1-1.08,1.8,3.88,3.88,0,0,1-1.59,1,8.12,8.12,0,0,1-1.95.37,7.27,7.27,0,0,1-2-.4,4.25,4.25,0,0,1-1.57-1,4.49,4.49,0,0,1-1-1.74,9.4,9.4,0,0,1-.37-3v-14A2.15,2.15,0,0,1,55.91,66.39Z"/><polygon class="a" points="81.89 68.04 86.45 68.04 86.45 65.89 74.92 65.89 74.92 68.04 79.22 68.04 79.22 86.88 74.66 86.88 74.66 89.03 86.67 89.03 86.67 86.92 81.89 86.92 81.89 68.04"/><path class="a" d="M97.17,67.15a1.46,1.46,0,0,1,.16-.66,1.41,1.41,0,0,0,.17-.6h-3V89h13.83V86.73H97.17Z"/><path class="a" d="M117.56,67.15a1.47,1.47,0,0,1,.17-.66,1.41,1.41,0,0,0,.17-.6h-3V89h13.84V86.73H117.56Z"/><path class="a" d="M148,68.47a8,8,0,0,0-2.58-2.13,6.7,6.7,0,0,0-3-.71,7,7,0,0,0-3.41.84,7.86,7.86,0,0,0-2.67,2.35,11.37,11.37,0,0,0-1.73,3.71,18,18,0,0,0-.61,4.86,19.08,19.08,0,0,0,.59,4.88,12.15,12.15,0,0,0,1.69,3.78,8,8,0,0,0,2.63,2.45,6.86,6.86,0,0,0,3.43.87,7.53,7.53,0,0,0,2.92-.61,6.79,6.79,0,0,0,2.57-2A10.63,10.63,0,0,0,149.61,83a19.23,19.23,0,0,0,.7-5.61,21.09,21.09,0,0,0-.59-5.31A9.64,9.64,0,0,0,148,68.47ZM147.18,82a8.35,8.35,0,0,1-1.25,2.89,4.42,4.42,0,0,1-1.75,1.5,4.68,4.68,0,0,1-2,.43,5,5,0,0,1-3.84-2.08,8.63,8.63,0,0,1-1.38-3,17.58,17.58,0,0,1-.53-4.52,15.9,15.9,0,0,1,.53-4.49,7.94,7.94,0,0,1,1.38-2.75,5.4,5.4,0,0,1,1.81-1.44,4.59,4.59,0,0,1,2.1-.41,3.88,3.88,0,0,1,1.86.46,5.24,5.24,0,0,1,1.66,1.51,8.6,8.6,0,0,1,1.31,2.8,16.49,16.49,0,0,1,.51,4.5A19.22,19.22,0,0,1,147.18,82Z"/><path class="a" d="M167.33,65.85V83l-9.71-17.14H155.1V89h2.48V70.82L167.78,89h2V66.86a1.08,1.08,0,0,1,.13-.52,1.24,1.24,0,0,0,.13-.49Z"/><path class="a" d="M47.44,76.75A14.37,14.37,0,1,0,33.07,91.12,14.38,14.38,0,0,0,47.44,76.75ZM33.07,86.48a9.73,9.73,0,1,1,9.73-9.73A9.74,9.74,0,0,1,33.07,86.48Z"/><path class="a" d="M56.79,98.92a18.75,18.75,0,1,0,18.74,18.75A18.76,18.76,0,0,0,56.79,98.92Zm0,32.86A14.11,14.11,0,1,1,70.9,117.67,14.13,14.13,0,0,1,56.79,131.78Z"/><path class="a" d="M45.34,20a10,10,0,1,0-10-10A10,10,0,0,0,45.34,20Zm0-15.33A5.35,5.35,0,1,1,40,10,5.35,5.35,0,0,1,45.34,4.64Z"/><path class="a" d="M50.05,41.55A14.36,14.36,0,1,0,64.41,27.19,14.38,14.38,0,0,0,50.05,41.55Zm14.36-9.72a9.73,9.73,0,1,1-9.73,9.72A9.74,9.74,0,0,1,64.41,31.83Z"/></svg>