<?xml version="1.0" encoding="utf-8"?>
<!-- Generator: Adobe Illustrator 26.0.1, SVG Export Plug-In . SVG Version: 6.00 Build 0)  -->
<svg version="1.1" id="Layer_1" xmlns="http://www.w3.org/2000/svg" xmlns:xlink="http://www.w3.org/1999/xlink" x="0px" y="0px"
	 viewBox="0 0 715.91 161.06" style="enable-background:new 0 0 715.91 161.06;" xml:space="preserve">
<style type="text/css">
	.st0{fill:#44BDD6;}
</style>
<g>
	<g>
		<path class="st0" d="M40.55,48.13c-0.61,0.97-1.26,2.19-1.67,3.46c0,0-0.7,1.85-0.42,3.67c0.35,2.29,2.22,3.92,3.41,4.55
			l44.16,20.63L27.6,108.28c-1.68,0.98-3.39,3.08-3.58,4.77c-0.04,0.37-0.09,0.74-0.09,1.08c0,1.96,1.18,4.74,1.42,5.14
			c0.12,0.2,0.21,0.41,0.32,0.6l79.33-39.56L40.55,48.13z"/>
		<path class="st0" d="M135.18,41.81c-9.91-9.91-23.56-16.03-38.64-16.03c-14.46,0-28.23,5.72-38.43,15.81l5.06,2.52
			c2.06,1.03,4.55,0.88,6.41-0.48c7.78-5.71,17.18-8.82,26.97-8.82c12.58,0,24.01,5.13,32.25,13.38
			c8.26,8.25,13.38,19.68,13.38,32.26c0,12.58-5.12,24.01-13.38,32.26c-8.25,8.26-19.68,13.38-32.25,13.38
			c-9.92,0-19.43-3.19-27.26-9.04c-1.87-1.4-4.39-1.56-6.47-0.52l-4.98,2.48c10.23,10.28,24.11,16.11,38.71,16.11
			c15.08,0,28.73-6.13,38.64-16.03c9.91-9.92,16.03-23.56,16.03-38.65C151.21,65.37,145.09,51.72,135.18,41.81z"/>
	</g>
	<g>
		<path class="st0" d="M685.24,74.26c-1.58-1.58-3.96-2.6-7.01-2.6h-38.48c-0.24,0-0.48,0.1-0.66,0.28
			c-0.17,0.17-0.27,0.41-0.27,0.66v2.34c0,0.71,0.2,1.34,0.53,1.81c0.49,0.71,1.18,1.06,1.7,1.25c0.53,0.18,0.93,0.21,0.99,0.22
			l0.06,0h4.3h24.41h5.5c1.74-0.01,3.02,0.24,3.75,0.79c0.37,0.27,0.65,0.61,0.86,1.13c0.21,0.52,0.35,1.24,0.35,2.19v4.95v1.84v3.4
			c0.01,1.75-0.25,3.03-0.8,3.76c-0.27,0.37-0.62,0.65-1.14,0.86c-0.52,0.21-1.24,0.35-2.2,0.35h-28.41
			c-1.57,0.01-2.68-0.19-3.25-0.58c-0.29-0.19-0.49-0.41-0.65-0.76c-0.16-0.35-0.26-0.84-0.27-1.53v-0.08v-0.73
			c0-0.71,0.1-1.22,0.26-1.57c0.24-0.53,0.54-0.79,1.17-1.03c0.62-0.23,1.56-0.34,2.75-0.33h2.42h20.05h4.3l0.06,0
			c0.08-0.01,0.76-0.05,1.55-0.47c0.39-0.21,0.81-0.52,1.13-1c0.33-0.47,0.53-1.1,0.53-1.81c0-1.22-0.01-2.33-0.01-2.33
			c0-0.51-0.41-0.92-0.92-0.92c0,0-1.16-0.01-2.34-0.01h-4.3h-20.54h-4c-2.02,0-4.05,0.65-5.64,1.92c-1.58,1.26-2.68,3.19-2.67,5.55
			v3.03v1.35c-0.01,2.36,1.1,4.29,2.68,5.54c1.58,1.26,3.62,1.91,5.63,1.91h31.58c3.05,0,5.43-1.02,7.01-2.6
			c1.58-1.58,2.35-3.67,2.35-5.71v-3.99l0.01-9.44v-1.88C687.6,77.93,686.83,75.83,685.24,74.26z"/>
		<path class="st0" d="M415.01,73.57c-1.58-1.26-3.62-1.91-5.63-1.91h-3.99h-24.92h-2.68c-3.05,0-5.43,1.02-7.01,2.6
			c-1.58,1.57-2.35,3.66-2.35,5.71v4v9.43v1.88c0,2.05,0.77,4.14,2.35,5.71c1.58,1.58,3.96,2.61,7.01,2.6h2.68h29.17h4.29h2.34
			c0.25,0,0.49-0.1,0.66-0.28c0.17-0.17,0.27-0.41,0.27-0.66v-2.33c0-0.71-0.2-1.34-0.53-1.81c-0.49-0.71-1.18-1.06-1.7-1.24
			c-0.53-0.18-0.93-0.21-0.98-0.22l-0.06,0h-4.29h-24.42h-5.49c-1.75,0.01-3.04-0.24-3.76-0.79c-0.37-0.27-0.65-0.61-0.86-1.14
			c-0.21-0.52-0.34-1.24-0.34-2.19v-4.97v-5.22c-0.01-1.75,0.24-3.03,0.79-3.76c0.27-0.37,0.61-0.64,1.14-0.86
			c0.52-0.21,1.24-0.34,2.2-0.34h4.95h21.04h2.43c1.57-0.01,2.68,0.2,3.24,0.58c0.29,0.19,0.48,0.41,0.64,0.76
			c0.16,0.35,0.26,0.84,0.27,1.53v0.07v0.74c0,0.71-0.1,1.22-0.26,1.57c-0.24,0.52-0.54,0.79-1.16,1.03
			c-0.62,0.23-1.55,0.33-2.74,0.33h-2.43h-20.05h-4.31h-0.06c-0.07,0.01-0.76,0.05-1.54,0.46c-0.39,0.21-0.81,0.52-1.13,1
			c-0.33,0.47-0.53,1.1-0.53,1.81v2.35c0,0.25,0.1,0.49,0.27,0.66c0.17,0.17,0.41,0.27,0.66,0.27h2.33h4.31h20.55h3.99
			c2.02,0,4.05-0.65,5.63-1.92c1.58-1.25,2.69-3.18,2.68-5.54v-3.03V79.9v-0.77C417.7,76.76,416.59,74.83,415.01,73.57z"/>
		<path class="st0" d="M494.5,71.86h-2.34c-0.71,0-1.34,0.2-1.81,0.52c-0.71,0.5-1.05,1.18-1.24,1.71c-0.18,0.53-0.2,0.93-0.21,0.98
			l0,0.07v4.29v11.39v1.82v2.74c0,0.68-0.23,1.38-0.6,1.86c-0.38,0.48-0.83,0.74-1.45,0.74c-0.18,0-0.39-0.04-0.62-0.1l-2.29-1.82
			c0,0-25.17-22.82-26.12-23.48l0,0c-1.17-0.8-2.37-1.37-3.82-1.37c-1.16,0-2.39,0.34-3.9,1.02h0c-2.21,0.99-3.47,2.53-4.07,4.1
			c-0.61,1.57-0.63,3.14-0.63,4.36v1.76v0.17v13.87v1.14v3.18v2.32c0,0.25,0.1,0.48,0.27,0.66c0.17,0.17,0.41,0.27,0.66,0.27h2.33
			c0.71,0,1.34-0.2,1.81-0.52c0.71-0.49,1.06-1.17,1.24-1.69c0.18-0.52,0.21-0.92,0.21-0.98v-0.06v-4.32V85.09v-4.56
			c0-0.68,0.23-1.38,0.6-1.86c0.38-0.48,0.83-0.75,1.45-0.75c0.18,0,0.4,0.05,0.62,0.11l2.28,1.83c0,0,24.21,22.09,24.79,22.55
			c0.6,0.46,1.04,0.78,1.44,0.99c1.25,0.63,2.44,1.21,3.96,1.22c1.07,0,2.24-0.29,3.65-0.93c2.2-0.99,3.46-2.52,4.07-4.09
			c0.61-1.57,0.64-3.14,0.64-4.36v-1.78v-0.16V79.42v-4.29v-2.34c0-0.25-0.1-0.49-0.27-0.66C494.99,71.96,494.75,71.86,494.5,71.86z
			"/>
		<path class="st0" d="M613.57,98.02c-0.53-0.18-0.93-0.21-0.98-0.21l-0.06,0h-4.06c-1.12,0-1.9-0.22-2.31-0.54
			c-0.41-0.32-0.63-0.7-0.65-1.53V73.16c0-0.25-0.1-0.49-0.27-0.66c-0.17-0.17-0.41-0.27-0.66-0.27h-2.34
			c-0.71,0-1.34,0.2-1.81,0.53c-0.72,0.49-1.07,1.17-1.25,1.7c-0.18,0.53-0.21,0.93-0.22,0.99l0,0.06v20.12
			c0,2.42,0.68,4.55,2.11,6.08c1.43,1.53,3.55,2.37,6.14,2.36h7.67c0.25,0,0.49-0.1,0.66-0.27c0.18-0.18,0.28-0.41,0.28-0.66v-2.06
			c0-0.71-0.2-1.33-0.53-1.81C614.78,98.54,614.1,98.2,613.57,98.02z"/>
		<path class="st0" d="M599.42,65.18c0.21,0.39,0.52,0.81,1,1.14c0.47,0.33,1.1,0.53,1.81,0.53c1.24,0,2.35-0.01,2.35-0.01
			c0.51-0.01,0.92-0.42,0.92-0.94v-2.33v-2.89v-1.12l0-0.07c-0.01-0.07-0.05-0.76-0.46-1.55c-0.21-0.39-0.52-0.81-1-1.13
			c-0.47-0.33-1.1-0.53-1.81-0.53h-2.34c-0.25,0-0.49,0.1-0.66,0.27c-0.17,0.17-0.27,0.42-0.27,0.66v2.35v3.06v0.95l0,0.06
			C598.97,63.7,599.01,64.39,599.42,65.18z"/>
		<path class="st0" d="M256.29,73.62c-1.57-1.24-3.58-1.85-5.54-1.86h-31.59c-3.06,0-5.42,1.03-6.97,2.61
			c-1.55,1.57-2.28,3.63-2.28,5.61v15.31c0,1.98,0.73,4.04,2.28,5.61c1.54,1.58,3.9,2.61,6.97,2.61h36.12l2.22,0.08
			c0.25,0.01,0.5-0.08,0.68-0.26c0.18-0.17,0.29-0.42,0.29-0.67v-2.33c0-0.68-0.19-1.27-0.49-1.73c-0.46-0.69-1.11-1.03-1.61-1.21
			c-0.25-0.09-0.48-0.14-0.65-0.18l-0.21-0.03l-0.06-0.01h-0.01v0l-0.13-0.01H221.1c-1.74,0-3.05-0.24-3.8-0.79
			c-0.38-0.28-0.67-0.63-0.89-1.17c-0.22-0.53-0.36-1.27-0.36-2.25v-10.2c-0.01-1.73,0.24-3.04,0.8-3.79
			c0.28-0.38,0.63-0.68,1.17-0.9c0.54-0.22,1.27-0.36,2.26-0.36h28.42c1.53-0.01,2.67,0.18,3.28,0.59c0.31,0.2,0.52,0.43,0.69,0.79
			c0.17,0.36,0.28,0.88,0.29,1.59v0.82c0,0.73-0.11,1.26-0.28,1.63c-0.26,0.54-0.59,0.83-1.24,1.07c-0.64,0.24-1.59,0.33-2.74,0.33
			h-26.77l-0.11,0.01v0l0,0c-0.15,0.02-0.83,0.08-1.56,0.5c-0.36,0.21-0.75,0.52-1.04,0.97c-0.28,0.44-0.45,1.01-0.46,1.65h0
			l-0.1,2.24c-0.01,0.26,0.08,0.5,0.26,0.69c0.18,0.19,0.42,0.29,0.68,0.29h31.18c1.96,0,3.96-0.61,5.54-1.84
			c1.57-1.22,2.68-3.14,2.67-5.51v-4.36C258.97,76.75,257.86,74.84,256.29,73.62z"/>
		<path class="st0" d="M566.49,78.35c0.41-0.11,1-0.31,1.54-0.8c0.53-0.47,0.95-1.26,0.95-2.22h0l0.11-2.24
			c0.01-0.26-0.08-0.5-0.25-0.69c-0.18-0.19-0.42-0.29-0.68-0.29h-38.48c-3.06,0-5.42,1.03-6.97,2.61
			c-1.55,1.57-2.29,3.63-2.29,5.61v15.41c0,1.98,0.74,4.04,2.29,5.61c1.55,1.57,3.91,2.61,6.97,2.6l38.33,0.1
			c0.26,0.01,0.5-0.08,0.69-0.26c0.19-0.18,0.29-0.41,0.29-0.67v-2.33c0-0.68-0.19-1.27-0.49-1.73c-0.46-0.69-1.11-1.03-1.61-1.22
			c-0.25-0.09-0.48-0.14-0.65-0.18l-0.21-0.03l-0.06-0.01l-0.14-0.01H531.6c-1.73,0.01-3.05-0.24-3.81-0.8
			c-0.39-0.28-0.68-0.63-0.9-1.17c-0.22-0.54-0.36-1.27-0.36-2.26l0.01-10.71c0-0.99,0.14-1.73,0.36-2.26
			c0.34-0.8,0.8-1.21,1.57-1.53c0.76-0.31,1.84-0.44,3.13-0.43h34.21l0.14-0.02v0C565.99,78.44,566.22,78.41,566.49,78.35z"/>
		<path class="st0" d="M334.93,72.49L334.93,72.49c-1.41-0.63-2.57-0.93-3.65-0.93c-1.52,0-2.71,0.58-3.97,1.21l-0.01,0
			c-0.67,0.35-1.58,1.01-2.68,1.86c-3.26,2.53-8.28,6.98-8.65,7.23c-0.35,0.24-0.78,0.41-1.1,0.44c-0.32-0.03-0.75-0.2-1.1-0.44
			c-0.37-0.25-5.39-4.7-8.65-7.23c-1.1-0.85-2.01-1.51-2.68-1.86l-0.01,0c-1.26-0.63-2.45-1.21-3.97-1.21
			c-1.07,0-2.24,0.29-3.64,0.92l0,0c-2.2,0.99-3.46,2.52-4.07,4.09c-0.61,1.57-0.64,3.13-0.64,4.35v1.78v0.17v13.87v4.31v2.33
			c0,0.25,0.1,0.49,0.27,0.66c0.17,0.18,0.41,0.27,0.66,0.27h2.33c0.71,0,1.34-0.2,1.81-0.52c0.48-0.32,0.79-0.74,1-1.13
			c0.41-0.78,0.46-1.47,0.46-1.54l0-0.07v-4.31V85.36v-4.56c0-0.69,0.23-1.39,0.6-1.87c0.38-0.48,0.82-0.74,1.44-0.74
			c0.18,0,0.4,0.05,0.62,0.11l2.33,1.84l9.64,7.87c2.09,1.71,5.1,1.71,7.19,0l9.64-7.87l2.33-1.84c0.23-0.06,0.44-0.11,0.62-0.11
			c0.61,0.01,1.06,0.26,1.44,0.74c0.37,0.48,0.6,1.18,0.6,1.87v4.56v11.39v4.31l0,0.07c0.01,0.07,0.05,0.76,0.47,1.54
			c0.21,0.39,0.52,0.81,1,1.13c0.47,0.33,1.1,0.53,1.81,0.52h2.33c0.25,0,0.49-0.1,0.66-0.27c0.17-0.17,0.27-0.41,0.27-0.66v-2.33
			v-4.31V82.89v-0.17v-1.78c0-1.22-0.03-2.79-0.64-4.35C338.39,75.01,337.13,73.49,334.93,72.49z"/>
	</g>
</g>
</svg>
