<?xml version="1.0" encoding="UTF-8" standalone="no"?>
<!-- Generator: Adobe Illustrator 14.0.0, SVG Export Plug-In . SVG Version: 6.00 Build 43363)  -->
<svg xmlns:dc="http://purl.org/dc/elements/1.1/" xmlns:cc="http://creativecommons.org/ns#" xmlns:rdf="http://www.w3.org/1999/02/22-rdf-syntax-ns#" xmlns:svg="http://www.w3.org/2000/svg" xmlns="http://www.w3.org/2000/svg" xmlns:sodipodi="http://sodipodi.sourceforge.net/DTD/sodipodi-0.dtd" xmlns:inkscape="http://www.inkscape.org/namespaces/inkscape" version="1.1" x="0px" y="0px" width="184.55423" height="110.44636" viewBox="0 0 184.55423 110.44636" enable-background="new 0 0 595.276 841.89" xml:space="preserve" id="svg2" inkscape:version="0.48.1 r9760" sodipodi:docname="entrouvert_logos_charte.svgz"><metadata id="metadata179"><rdf:RDF><cc:Work rdf:about=""><dc:format>image/svg+xml</dc:format><dc:type rdf:resource="http://purl.org/dc/dcmitype/StillImage"/><dc:title/></cc:Work></rdf:RDF></metadata><defs id="defs177">
	
	
	
	
	
	
	
	
	
	
	
	
	
	
	
	
	
	
	
	
	
	
	
	
	
	
	
	
	
	
	
	
	
	
	
	
	
	
	
	
	
	
	
	
	
	
	
	
	
	
</defs><sodipodi:namedview pagecolor="#ffffff" bordercolor="#666666" borderopacity="1" objecttolerance="10" gridtolerance="10" guidetolerance="10" inkscape:pageopacity="0" inkscape:pageshadow="2" inkscape:window-width="974" inkscape:window-height="618" id="namedview175" showgrid="false" fit-margin-top="0" fit-margin-left="0" fit-margin-right="0" fit-margin-bottom="0" inkscape:zoom="1.014604" inkscape:cx="220.0195" inkscape:cy="-34.704502" inkscape:window-x="0" inkscape:window-y="23" inkscape:window-maximized="0" inkscape:current-layer="svg2"/>


<g id="g3240" transform="translate(-200.7898,-234.55165)"><g id="Calque_1">
</g><g id="g6">
		<g id="g8">
			<g id="g10">
				<g id="g12">
					<path d="m 329.583,257.232 c -0.152,-0.005 -0.309,0.002 -0.462,0 0.608,0.005 1.21,0.035 1.808,0.086 -0.452,-0.04 -0.902,-0.072 -1.346,-0.086 z" id="path14" inkscape:connector-curvature="0" style="fill:#39a7db"/>
					<path d="m 326.666,257.327 c 0.662,-0.062 1.335,-0.089 2.015,-0.095 -0.668,0.005 -1.34,0.03 -2.015,0.095 z" id="path16" inkscape:connector-curvature="0" style="fill:#39a7db"/>
					<path d="m 318.048,259.985 c -0.237,0.134 -0.471,0.284 -0.706,0.425 0.253,-0.15 0.497,-0.311 0.757,-0.452 -0.016,0.01 -0.034,0.018 -0.051,0.027 z" id="path18" inkscape:connector-curvature="0" style="fill:#39a7db"/>
					<path d="m 328.903,242.609 c -0.027,0 -0.054,0.002 -0.081,0.002 0.162,0 0.328,0.006 0.492,0.008 -0.138,-0.001 -0.273,-0.01 -0.411,-0.01 z" id="path20" inkscape:connector-curvature="0" style="fill:#39a7db"/>
					<path d="m 308.163,248.984 c 2.367,-1.555 4.634,-2.635 6.438,-3.494 -2.301,0.973 -4.442,2.141 -6.438,3.494 z" id="path22" inkscape:connector-curvature="0" style="fill:#39a7db"/>
					<path d="m 340.068,244.31 c 0.439,0.139 0.88,0.29 1.321,0.449 -0.437,-0.159 -0.878,-0.308 -1.321,-0.449 z" id="path24" inkscape:connector-curvature="0" style="fill:#39a7db"/>
					<path d="m 337.42,243.583 c 0.734,0.172 1.475,0.372 2.22,0.598 -0.732,-0.222 -1.471,-0.423 -2.22,-0.598 z" id="path26" inkscape:connector-curvature="0" style="fill:#39a7db"/>
					<path d="m 358.947,257.948 c -1.181,-1.622 -2.487,-3.153 -3.937,-4.584 -3.383,-3.331 -7.306,-5.972 -11.734,-7.874 -0.106,-0.046 -0.217,-0.08 -0.323,-0.125 0.487,0.203 0.976,0.418 1.465,0.647 5.028,2.361 10.118,6.046 14.529,11.936 z" id="path28" inkscape:connector-curvature="0" style="fill:#39a7db"/>
					<path d="m 335.083,243.117 c 0.411,0.068 0.824,0.145 1.24,0.229 -0.411,-0.082 -0.823,-0.161 -1.24,-0.229 z" id="path30" inkscape:connector-curvature="0" style="fill:#39a7db"/>
					<path d="m 322.332,258.195 c 0.592,-0.178 1.188,-0.338 1.793,-0.467 -0.603,0.127 -1.2,0.289 -1.793,0.467 z" id="path32" inkscape:connector-curvature="0" style="fill:#39a7db"/>
					<path d="m 320.362,258.895 c 0.493,-0.204 0.994,-0.384 1.499,-0.549 -0.506,0.164 -1.005,0.347 -1.499,0.549 z" id="path34" inkscape:connector-curvature="0" style="fill:#39a7db"/>
					<path d="m 318.406,259.802 c 0.553,-0.288 1.119,-0.559 1.702,-0.805 -0.577,0.245 -1.148,0.507 -1.702,0.805 z" id="path36" inkscape:connector-curvature="0" style="fill:#39a7db"/>
					<path d="m 359.027,258.054 c -0.026,-0.036 -0.054,-0.07 -0.08,-0.106 0.025,0.036 0.052,0.072 0.077,0.108 10e-4,-10e-4 0.002,-10e-4 0.003,-0.002 z" id="path38" inkscape:connector-curvature="0" style="fill:#e0037a"/>
					<path d="m 314.6,245.49 c 2.227,-0.955 4.518,-1.669 6.875,-2.147 -2.961,0.586 -5.352,1.422 -6.875,2.147 z" id="path40" inkscape:connector-curvature="0" style="fill:#e0037a"/>
					<path d="m 294.969,265.024 c 1.902,-4.426 4.544,-8.304 7.876,-11.661 1.64,-1.627 3.412,-3.087 5.317,-4.379 -1.659,1.09 -3.366,2.406 -5.005,4.073 -12.546,11.716 -27.233,32.032 -33.834,40.16 l -2.57,2.717 c -3.398,3.618 -7.409,5.819 -12.051,6.663 -4.645,0.845 -9.062,0.281 -13.28,-1.679 l 39.764,-42.017 -5.237,-4.979 c -3.715,-3.489 -7.858,-6.092 -12.448,-7.77 -4.588,-1.687 -9.257,-2.464 -13.939,-2.335 -4.715,0.133 -9.327,1.163 -13.819,3.097 -4.492,1.934 -8.487,4.761 -12.003,8.446 -3.519,3.723 -6.093,7.857 -7.728,12.377 -1.612,4.55 -2.368,9.191 -2.239,13.877 0.125,4.709 1.141,9.318 3,13.819 0.953,2.269 2.139,4.41 3.557,6.426 -3.654,2.285 -8.026,4.038 -12.843,4.038 -0.072,0 -0.15,-10e-4 -0.217,-10e-4 -3.556,0 -6.451,2.867 -6.48,6.428 -0.028,3.579 2.848,6.503 6.428,6.534 0.092,10e-4 0.182,10e-4 0.273,10e-4 8.905,0 16.471,-3.582 22.246,-7.72 2.379,1.636 4.927,2.979 7.649,4.027 4.523,1.735 9.261,2.529 14.206,2.393 15.386,-0.422 25.773,-10.708 26.596,-11.451 4.594,-4.148 9.476,-11.229 14.756,-18.743 -0.565,-2.575 -0.856,-5.228 -0.856,-7.968 0,-5.14 0.952,-9.921 2.881,-14.373 z m -58.345,19.672 c -2.62,2.76 -4.564,4.818 -5.832,6.158 -1.608,-3.023 -2.483,-6.24 -2.576,-9.637 -0.173,-6.122 1.895,-11.438 6.154,-15.933 3.396,-3.618 7.412,-5.8 12.055,-6.593 4.641,-0.774 9.061,-0.184 13.281,1.773 -1.503,1.567 -3.583,3.761 -6.313,6.581 -2.713,2.81 -5.534,5.772 -8.471,8.875 -2.914,3.08 -5.687,6.017 -8.298,8.776 z" id="path42" inkscape:connector-curvature="0" style="fill:#e0037a"/>
					<path d="m 328.903,257.222 c -0.075,0 -0.147,0.01 -0.223,0.011 0.147,-10e-4 0.295,-0.002 0.441,0 -0.073,-0.002 -0.144,-0.011 -0.218,-0.011 z" id="path44" inkscape:connector-curvature="0" style="fill:#e0037a"/>
					<path d="m 337.615,258.957 c -0.252,-0.106 -0.511,-0.182 -0.765,-0.278 1.886,0.718 3.803,1.733 5.729,3.173 -1.499,-1.157 -3.144,-2.138 -4.964,-2.895 z" id="path46" inkscape:connector-curvature="0" style="fill:#e0037a"/>
					<path d="m 315.984,261.271 c 0.45,-0.301 0.902,-0.587 1.358,-0.861 0.235,-0.141 0.469,-0.292 0.706,-0.425 0.017,-0.01 0.034,-0.017 0.051,-0.026 0.101,-0.056 0.205,-0.103 0.307,-0.157 0.555,-0.298 1.125,-0.56 1.702,-0.805 0.084,-0.036 0.17,-0.067 0.254,-0.102 0.494,-0.202 0.993,-0.385 1.499,-0.549 0.156,-0.051 0.312,-0.104 0.471,-0.151 0.594,-0.178 1.19,-0.339 1.793,-0.467 0.209,-0.044 0.419,-0.085 0.63,-0.124 0.571,-0.104 1.147,-0.194 1.732,-0.254 0.06,-0.006 0.119,-0.017 0.179,-0.023 0.676,-0.065 1.348,-0.09 2.015,-0.095 0.075,-0.001 0.147,-0.011 0.223,-0.011 0.074,0 0.146,0.01 0.219,0.01 0.153,0.002 0.31,-0.005 0.462,0 0.443,0.014 0.894,0.046 1.346,0.086 0.198,0.018 0.398,0.042 0.598,0.065 0.5,0.057 0.996,0.129 1.487,0.218 0.271,0.049 0.542,0.108 0.814,0.168 0.375,0.083 0.747,0.179 1.117,0.282 0.282,0.078 0.563,0.152 0.848,0.244 0.355,0.114 0.705,0.251 1.057,0.384 0.254,0.096 0.513,0.171 0.765,0.278 1.82,0.757 3.465,1.738 4.965,2.895 0.317,0.245 0.637,0.487 0.94,0.748 2.002,1.667 3.933,3.815 5.987,6.328 -0.489,-3.005 1.036,-6.088 3.928,-7.44 0.098,-0.046 2.531,-1.225 5.589,-3.432 -0.025,-0.036 -0.052,-0.072 -0.077,-0.108 -4.411,-5.89 -9.501,-9.575 -14.529,-11.935 -0.489,-0.229 -0.978,-0.445 -1.465,-0.647 -0.522,-0.218 -1.044,-0.418 -1.563,-0.606 -0.441,-0.159 -0.882,-0.31 -1.321,-0.449 -0.144,-0.045 -0.285,-0.085 -0.428,-0.128 -0.745,-0.227 -1.485,-0.426 -2.22,-0.598 -0.368,-0.086 -0.733,-0.165 -1.098,-0.238 -0.416,-0.084 -0.829,-0.161 -1.24,-0.229 -0.737,-0.123 -1.47,-0.228 -2.19,-0.304 -0.045,-0.005 -0.09,-0.012 -0.136,-0.017 -0.661,-0.067 -1.312,-0.111 -1.955,-0.142 -0.491,-0.023 -0.989,-0.03 -1.487,-0.035 -0.164,-0.002 -0.33,-0.008 -0.492,-0.008 -0.413,0.001 -0.822,0.016 -1.231,0.029 -0.271,0.01 -0.545,0.016 -0.812,0.031 -0.313,0.017 -0.624,0.043 -0.936,0.067 -0.348,0.028 -0.695,0.057 -1.033,0.093 -0.279,0.03 -0.557,0.066 -0.834,0.102 -0.314,0.041 -0.627,0.083 -0.932,0.13 -0.428,0.067 -0.854,0.141 -1.276,0.223 -0.098,0.019 -0.197,0.036 -0.293,0.055 -2.357,0.479 -4.648,1.192 -6.875,2.147 -1.804,0.859 -4.07,1.939 -6.438,3.494 -1.905,1.292 -3.678,2.752 -5.317,4.379 -3.332,3.357 -5.974,7.234 -7.876,11.661 -1.93,4.452 -2.881,9.233 -2.881,14.375 0,2.741 0.291,5.393 0.856,7.968 6.906,-9.825 14.501,-20.381 23.037,-26.094 z" id="path48" inkscape:connector-curvature="0" style="fill:#6c2b7e"/>
					<path d="m 359.333,258.48 c -0.103,-0.142 -0.203,-0.288 -0.307,-0.427 -0.001,10e-4 -0.002,10e-4 -0.003,0.002 0.185,0.256 0.274,0.378 0.31,0.425 z" id="path50" inkscape:connector-curvature="0" style="fill:#39a7db"/>
					<path d="m 379.473,234.641 c -3.803,-0.611 -7.389,1.976 -7.999,5.782 -1.314,8.173 -7.65,14.169 -12.447,17.63 0.196,0.264 0.384,0.528 0.307,0.427 -0.036,-0.048 -0.125,-0.17 -0.31,-0.425 -3.058,2.207 -5.491,3.386 -5.589,3.432 -2.892,1.352 -4.417,4.435 -3.928,7.44 -2.055,-2.513 -3.985,-4.661 -5.987,-6.328 0.42,0.36 0.839,0.724 1.231,1.117 2.022,2.024 3.615,4.379 4.758,7.069 1.145,2.686 1.737,5.566 1.737,8.614 0,3.069 -0.593,5.972 -1.737,8.709 -1.143,2.735 -2.735,5.139 -4.758,7.163 -2.021,2.02 -4.399,3.616 -7.137,4.758 -2.764,1.141 -5.666,1.714 -8.712,1.714 -3.07,0 -5.971,-0.573 -8.711,-1.714 -2.735,-1.142 -5.14,-2.738 -7.163,-4.758 -2.021,-2.024 -3.614,-4.428 -4.759,-7.163 -1.142,-2.737 -1.712,-5.64 -1.712,-8.709 0,-3.048 0.57,-5.928 1.712,-8.614 1.145,-2.69 2.737,-5.045 4.759,-7.069 0.906,-0.905 1.9,-1.712 2.955,-2.445 -8.536,5.713 -16.131,16.269 -23.039,26.096 0.476,2.166 1.143,4.277 2.024,6.332 1.902,4.499 4.544,8.448 7.876,11.827 3.355,3.403 7.259,6.068 11.755,7.972 4.498,1.925 9.256,2.879 14.303,2.879 5.142,0 9.924,-0.954 14.373,-2.879 4.429,-1.903 8.352,-4.569 11.734,-7.972 3.399,-3.379 6.065,-7.328 7.97,-11.827 1.929,-4.498 2.878,-9.254 2.878,-14.3 0,-2.936 -0.32,-5.75 -0.945,-8.456 6.913,-4.527 18.023,-13.88 20.342,-28.305 0.614,-3.805 -1.978,-7.385 -5.781,-7.997 z" id="path52" inkscape:connector-curvature="0" style="fill:#39a7db"/>
				</g>
			</g>
		</g>
		<path d="m 226.144,344.998 c -3.479,0 -6.016,-2.671 -6.016,-5.971 0,-3.232 2.537,-6.038 5.746,-6.038 3.165,0 5.208,2.671 5.297,5.925 0,0.404 -0.202,0.853 -0.696,0.853 h -8.934 c 0.359,2.267 2.29,3.816 4.579,3.816 0.808,0 2.02,-0.202 2.738,-0.561 0.539,-0.27 0.853,-0.045 0.988,0.202 0.157,0.314 0.09,0.741 -0.314,0.965 -0.897,0.517 -2.379,0.809 -3.388,0.809 z m -4.602,-6.644 h 8.17 c -0.359,-2.222 -1.661,-3.95 -3.861,-3.95 -2.177,0 -3.972,1.818 -4.309,3.95 z" id="path54" inkscape:connector-curvature="0" style="fill:#707173"/>
		<path d="m 242.594,333.102 c 3.367,0 4.871,2.2 4.871,5.14 v 5.23 h 0.426 c 0.898,0 0.898,1.414 0,1.414 h -2.245 c -0.897,0 -0.897,-1.414 0,-1.414 h 0.404 v -5.23 c 0,-2.155 -0.988,-3.726 -3.457,-3.726 -2.222,0 -3.973,1.257 -3.973,3.996 v 4.96 h 0.404 c 0.897,0 0.897,1.414 0,1.414 h -2.245 c -0.898,0 -0.898,-1.414 0,-1.414 h 0.404 v -8.934 h -0.516 c -0.898,0 -0.898,-1.437 0,-1.437 h 1.392 c 0.314,0 0.561,0.247 0.561,0.562 v 1.257 c 0.899,-1.302 2.47,-1.818 3.974,-1.818 z" id="path56" inkscape:connector-curvature="0" style="fill:#707173"/>
		<path d="m 255.721,334.538 v 7.116 c 0,1.122 0.808,1.818 1.84,1.84 0.247,0 0.741,-0.067 1.01,-0.157 0.381,-0.135 0.696,0.022 0.853,0.359 0.157,0.336 0.022,0.808 -0.426,0.942 -0.449,0.157 -0.898,0.247 -1.324,0.247 -2.447,0 -3.367,-1.616 -3.367,-3.793 v -6.554 h -1.033 c -0.898,0 -0.898,-1.437 0,-1.437 h 1.033 v -2.985 c 0,-0.449 0.336,-0.674 0.696,-0.674 0.359,0 0.718,0.225 0.718,0.674 v 2.985 h 2.289 c 0.472,0 0.696,0.359 0.696,0.718 0,0.359 -0.224,0.718 -0.696,0.718 h -2.289 z" id="path58" inkscape:connector-curvature="0" style="fill:#707173"/>
		<path d="m 266.717,344.347 c 0,0.292 -0.247,0.539 -0.539,0.539 h -1.167 c -0.92,0 -0.92,-1.414 0,-1.414 h 0.292 v -8.979 h -0.292 c -0.92,0 -0.92,-1.392 0,-1.392 h 1.167 c 0.292,0 0.539,0.247 0.539,0.562 v 1.437 c 1.033,-1.526 2.469,-1.998 4.175,-1.998 0.381,-0.022 0.741,0.202 0.741,0.673 0,0.718 -0.741,0.718 -0.741,0.718 h -0.067 c -1.818,0 -4.108,1.01 -4.108,3.502 v 6.352 z" id="path60" inkscape:connector-curvature="0" style="fill:#707173"/>
		<path d="m 277.277,327.889 c 0.875,0 1.313,0.671 1.313,1.284 0,0.263 -0.087,0.555 -0.234,0.935 -0.233,0.584 -0.554,1.372 -0.905,2.277 -0.233,0.642 -1.08,0.497 -0.963,-0.205 l 0.555,-2.072 c -0.642,0 -0.993,-0.584 -0.993,-0.992 10e-4,-0.615 0.438,-1.227 1.227,-1.227 z" id="path62" inkscape:connector-curvature="0" style="fill:#707173"/>
		<path d="m 287.248,344.953 c -3.255,0.045 -5.948,-2.671 -5.993,-5.881 -0.045,-3.232 2.671,-6.038 5.903,-6.038 3.075,0 6.083,2.581 5.993,5.858 0,3.3 -2.559,6.016 -5.903,6.061 z m -0.022,-10.504 c -2.492,0 -4.624,2.087 -4.579,4.601 0.045,2.492 2.11,4.512 4.602,4.512 2.604,0 4.512,-2.155 4.512,-4.669 -0.001,-2.469 -2.156,-4.444 -4.535,-4.444 z" id="path64" inkscape:connector-curvature="0" style="fill:#707173"/>
		<path d="m 307.4,334.516 c -0.897,0 -0.897,-1.414 0,-1.414 h 1.324 c 0.314,0 0.562,0.247 0.562,0.539 v 9.809 h 0.537 c 0.898,0 0.898,1.437 0,1.437 h -1.391 c -0.314,0 -0.562,-0.247 -0.562,-0.561 v -1.257 c -0.897,1.302 -2.469,1.818 -3.973,1.818 -3.366,0 -5.028,-2.2 -5.028,-5.14 v -5.23 h -0.47 c -0.898,0 -0.898,-1.414 0,-1.414 h 1.324 c 0.314,0 0.561,0.247 0.561,0.539 v 6.105 c 0,2.155 1.145,3.726 3.614,3.726 2.222,0 3.973,-1.257 3.973,-3.995 v -4.961 H 307.4 z" id="path66" inkscape:connector-curvature="0" style="fill:#707173"/>
		<path d="m 315.455,334.538 h -0.582 c -0.898,0 -0.898,-1.437 0,-1.437 h 2.469 c 0.898,0 0.898,1.437 0,1.437 h -0.359 l 3.547,8.036 3.502,-8.036 h -0.359 c -0.898,0 -0.898,-1.437 0,-1.437 h 2.469 c 0.896,0 0.896,1.437 0,1.437 h -0.584 l -4.443,10.033 c -0.203,0.472 -1.012,0.472 -1.236,-0.044 l -4.424,-9.989 z" id="path68" inkscape:connector-curvature="0" style="fill:#707173"/>
		<path d="m 336.753,344.998 c -3.479,0 -6.016,-2.671 -6.016,-5.971 0,-3.232 2.537,-6.038 5.746,-6.038 3.166,0 5.209,2.671 5.297,5.925 0,0.404 -0.201,0.853 -0.695,0.853 h -8.934 c 0.359,2.267 2.291,3.816 4.58,3.816 0.807,0 2.02,-0.202 2.738,-0.561 0.539,-0.27 0.852,-0.045 0.986,0.202 0.158,0.314 0.09,0.741 -0.312,0.965 -0.897,0.517 -2.38,0.809 -3.39,0.809 z m -4.601,-6.644 h 8.17 c -0.357,-2.222 -1.66,-3.95 -3.859,-3.95 -2.178,0 -3.973,1.818 -4.311,3.95 z" id="path70" inkscape:connector-curvature="0" style="fill:#707173"/>
		<path d="m 349.007,344.347 c 0,0.292 -0.248,0.539 -0.539,0.539 H 347.3 c -0.92,0 -0.92,-1.414 0,-1.414 h 0.293 v -8.979 H 347.3 c -0.92,0 -0.92,-1.392 0,-1.392 h 1.168 c 0.291,0 0.539,0.247 0.539,0.562 v 1.437 c 1.033,-1.526 2.469,-1.998 4.174,-1.998 0.383,-0.022 0.742,0.202 0.742,0.673 0,0.718 -0.742,0.718 -0.742,0.718 h -0.066 c -1.818,0 -4.107,1.01 -4.107,3.502 v 6.352 z" id="path72" inkscape:connector-curvature="0" style="fill:#707173"/>
		<path d="m 361.753,334.538 v 7.116 c 0,1.122 0.809,1.818 1.84,1.84 0.248,0 0.74,-0.067 1.01,-0.157 0.383,-0.135 0.697,0.022 0.854,0.359 0.158,0.336 0.023,0.808 -0.426,0.942 -0.449,0.157 -0.898,0.247 -1.324,0.247 -2.447,0 -3.367,-1.616 -3.367,-3.793 v -6.554 h -1.033 c -0.896,0 -0.896,-1.437 0,-1.437 h 1.033 v -2.985 c 0,-0.449 0.336,-0.674 0.695,-0.674 0.359,0 0.719,0.225 0.719,0.674 v 2.985 h 2.289 c 0.471,0 0.695,0.359 0.695,0.718 0,0.359 -0.225,0.718 -0.695,0.718 h -2.29 z" id="path74" inkscape:connector-curvature="0" style="fill:#707173"/>
	</g><g id="Calque_2">
</g></g>
</svg>