<svg width="746" height="245" viewBox="0 0 746 245" fill="none" xmlns="http://www.w3.org/2000/svg">
<path d="M224.586 157.558C231.74 157.558 238.306 155.696 244.088 152.168V125.413H233.014V145.602C230.368 146.582 227.82 146.876 224.978 146.876C215.08 146.876 209.592 140.702 209.592 124.531C209.592 108.851 214.982 102.775 224.978 102.775C229.388 102.775 233.896 104.049 238.012 106.401L242.912 96.7969C237.326 93.4648 231.446 92.0928 224.782 92.0928C207.534 92.0928 197.341 103.363 197.341 124.531C197.341 147.17 207.436 157.558 224.586 157.558Z" fill="black"/>
<path d="M262.712 101.109C267.122 101.109 269.474 98.2669 269.474 94.5428C269.474 90.9167 267.122 87.8787 262.712 87.8787C258.4 87.8787 255.95 90.9167 255.95 94.5428C255.95 98.2669 258.4 101.109 262.712 101.109ZM268.494 107.675H256.93V156.578H268.494V107.675Z" fill="black"/>
<path d="M313.132 107.675H298.432V95.4248H290.004L287.652 107.675L278.342 109.047V117.377H287.064V141.192C287.064 152.266 293.042 157.558 302.842 157.558C307.252 157.558 311.564 156.382 315.288 154.324L312.054 145.21C309.212 146.582 306.762 147.17 304.41 147.17C300.392 147.17 298.432 145.504 298.432 140.702V117.377H313.132V107.675Z" fill="black"/>
<path d="M349.864 157.558C357.018 157.558 363.584 155.696 369.367 152.168V125.413H358.292V145.602C355.646 146.582 353.098 146.876 350.256 146.876C340.358 146.876 334.87 140.702 334.87 124.531C334.87 108.851 340.26 102.775 350.256 102.775C354.666 102.775 359.174 104.049 363.29 106.401L368.19 96.7969C362.604 93.4648 356.724 92.0928 350.06 92.0928C332.812 92.0928 322.619 103.363 322.619 124.531C322.619 147.17 332.714 157.558 349.864 157.558Z" fill="black"/>
<path d="M381.816 107.675V141.094C381.816 151.776 387.108 157.558 396.418 157.558C401.22 157.558 405.532 155.99 411.413 150.698V156.578H422.585V107.675H411.021V142.368C406.512 145.798 402.886 146.974 399.946 146.974C395.536 146.974 393.38 144.818 393.38 139.526V107.675H381.816Z" fill="black"/>
<path d="M475.158 156.578V124.923C475.158 111.987 468.592 106.695 456.734 106.695C450.756 106.695 443.798 108.459 436.741 111.889L440.27 121.003C446.542 118.161 451.148 116.985 454.97 116.985C461.34 116.985 463.888 119.435 463.888 125.707V128.55H452.814C440.662 128.55 435.075 135.018 435.075 143.054C435.075 151.874 441.348 157.558 449.874 157.558C455.362 157.558 459.968 155.794 464.182 151.188V156.578H475.158ZM453.01 148.444C448.796 148.444 446.248 146.386 446.248 142.368C446.248 139.036 448.306 136.586 453.5 136.586H463.888V143.838C459.968 147.17 456.734 148.444 453.01 148.444Z" fill="black"/>
<path d="M501.153 156.578V122.375C506.25 119.043 511.248 117.965 517.716 117.965V106.695C511.836 106.695 506.936 108.263 500.761 114.143V107.675H489.589V156.578H501.153Z" fill="black"/>
<path d="M568.248 156.578V90.1327H556.684V109.047C553.352 107.479 550.02 106.695 546.394 106.695C534.633 106.695 525.323 114.045 525.323 132.274C525.323 150.894 533.457 157.558 543.748 157.558C548.648 157.558 552.96 155.794 557.174 151.286V156.578H568.248ZM547.08 147.268C540.22 147.268 536.985 143.74 536.985 132.274C536.985 120.219 540.514 116.495 548.452 116.495C551 116.495 553.842 117.083 556.684 118.259V143.642C553.352 146.386 550.118 147.268 547.08 147.268Z" fill="black"/>
<path d="M589.067 101.109C593.477 101.109 595.829 98.2669 595.829 94.5428C595.829 90.9167 593.477 87.8787 589.067 87.8787C584.755 87.8787 582.305 90.9167 582.305 94.5428C582.305 98.2669 584.755 101.109 589.067 101.109ZM594.849 107.675H583.285V156.578H594.849V107.675Z" fill="black"/>
<path d="M647.523 156.578V124.923C647.523 111.987 640.957 106.695 629.099 106.695C623.121 106.695 616.163 108.459 609.107 111.889L612.635 121.003C618.907 118.161 623.513 116.985 627.335 116.985C633.705 116.985 636.253 119.435 636.253 125.707V128.55H625.179C613.027 128.55 607.441 135.018 607.441 143.054C607.441 151.874 613.713 157.558 622.239 157.558C627.727 157.558 632.333 155.794 636.547 151.188V156.578H647.523ZM625.375 148.444C621.161 148.444 618.613 146.386 618.613 142.368C618.613 139.036 620.671 136.586 625.865 136.586H636.253V143.838C632.333 147.17 629.099 148.444 625.375 148.444Z" fill="black"/>
<path d="M673.519 156.578V121.983C678.223 118.455 682.143 117.279 685.181 117.279C689.591 117.279 691.747 119.533 691.747 124.825V156.578H703.311V123.159C703.311 112.477 698.019 106.695 688.709 106.695C683.809 106.695 679.203 108.263 673.127 113.653V107.675H661.954V156.578H673.519Z" fill="black"/>
<path d="M80.312 91.2184C80.312 87.5778 82.6278 84.6157 85.4746 84.6157C88.3215 84.6157 90.6359 87.5778 90.6359 91.2184C90.6359 94.8604 88.3215 97.8211 85.4746 97.8211C82.6278 97.8211 80.312 94.8604 80.312 91.2184Z" fill="black"/>
<path d="M111.162 99.9384C110.991 97.321 109.232 95.562 106.784 95.562C104.336 95.562 102.576 97.321 102.407 99.9384C102.381 100.328 102.368 100.727 102.368 101.125C102.368 105.294 103.21 108.694 105.188 112.493L105.262 112.638L105.264 112.643C105.552 113.206 105.984 114.053 106.784 114.053C107.587 114.053 108.02 113.202 108.306 112.638L108.381 112.493C110.357 108.694 111.2 105.294 111.2 101.125C111.2 100.727 111.188 100.328 111.162 99.9384Z" fill="black"/>
<path d="M134.771 90.188C134.091 88.0339 132.093 86.373 129.798 86.0569C126.592 85.6154 123.335 87.5298 121.081 91.1745C120.403 92.2658 120.711 93.191 121.226 93.691C121.577 94.0344 122.047 94.2224 122.579 94.2347C122.592 94.236 122.603 94.236 122.614 94.236C123.244 94.236 123.828 93.8231 124.257 93.5195L124.261 93.5166L124.456 93.3817C126.78 91.8149 128.737 91.7018 130.805 93.0111C131.949 93.736 133.132 93.8068 133.968 93.1992C134.833 92.5683 135.149 91.3857 134.771 90.188Z" fill="black"/>
<path fill-rule="evenodd" clip-rule="evenodd" d="M158.85 93.7424L150.371 87.4749C151.236 79.1717 150.525 62.8911 135.673 49.672C132.562 46.9606 127.844 46.9728 124.701 49.6979C119.739 54.002 113.381 56.3715 106.798 56.3715C100.216 56.3715 93.8584 54.002 88.897 49.6979C85.7532 46.9715 81.034 46.9619 77.9216 49.6747C62.6418 63.3543 62.4201 79.5464 63.2426 87.4626L54.7733 93.7234C50.5003 96.8204 47.9478 101.815 47.9478 107.084V115.363C47.9478 140.798 57.9637 165.63 74.0852 180.167C87.0698 191.873 97.4635 197.333 106.805 197.349C116.135 197.333 126.529 191.873 139.512 180.167C155.635 165.63 165.649 140.798 165.649 115.363V107.084C165.649 101.815 163.098 96.8204 158.85 93.7424ZM145.898 162.097L145.895 162.101C148.15 155.729 149.509 149.056 149.708 142.639C149.725 142.095 149.733 141.554 149.733 141.014M145.898 162.097L145.895 162.101C150.7 154.524 154.333 145.675 156.524 136.226C158.085 129.495 158.914 122.46 158.914 115.363L158.914 107.084C158.914 103.905 157.436 101.012 154.86 99.1456L148.988 94.8046C148.714 95.7631 148.398 96.7337 148.041 97.7078C147.774 98.435 147.485 99.1641 147.174 99.8918C145.879 102.919 144.202 105.921 142.185 108.649C141.706 109.296 141.208 109.927 140.692 110.54C144.518 116.41 147.176 122.872 148.577 129.652C149.343 133.359 149.733 137.162 149.733 141.014M123.69 184.16C117.222 188.49 111.636 190.635 106.805 190.642C104.386 190.639 101.778 190.095 98.9704 189.023C109.129 178.6 114.895 164.611 114.895 150.006C114.895 141.471 113.049 133.138 109.647 126.042C119.531 125.447 128.706 121.733 135.96 115.383C140.664 123.098 143.144 131.894 143.144 141.013C143.144 156.691 134.823 175.054 123.69 184.16ZM54.6843 115.363V107.084C54.6843 103.905 56.1611 101.011 58.7644 99.1257L64.7003 94.7384C65.6755 98.0942 67.0465 101.314 68.7847 104.333C68.9241 104.575 69.0659 104.816 69.21 105.055C70.1088 106.549 71.0991 107.992 72.1771 109.375L56.8658 135.29C55.4424 128.844 54.6843 122.132 54.6843 115.363ZM106.798 90.2313C108.879 90.2313 110.502 88.2663 112.575 85.7559C113.43 84.7212 114.361 83.5937 115.433 82.4731C122.038 75.4671 130.48 73.7135 136.616 76.1442C141.86 78.2207 144.376 83.014 143.681 89.1249C142.382 96.7359 138.851 103.656 133.401 109.057C126.434 115.961 117.083 119.762 106.798 119.762C96.5136 119.762 87.1629 115.961 80.1964 109.057C74.7449 103.656 71.2138 96.7359 69.9163 89.1249C69.2196 83.014 71.7366 78.2207 76.98 76.1442C83.1185 73.7135 91.5604 75.4671 98.1643 82.4731C99.2361 83.5943 100.168 84.7221 101.022 85.7572C103.095 88.267 104.717 90.2313 106.798 90.2313Z" fill="black"/>
</svg>
