<svg xmlns="http://www.w3.org/2000/svg" xmlns:xlink="http://www.w3.org/1999/xlink" version="1.1" id="Calque_1" x="0px" y="0px" viewBox="0 0 298 60" style="enable-background:new 0 0 298 60;" xml:space="preserve" class="logo">
<style type="text/css">
    @import url("https://fonts.googleapis.com/css?family=Lora:400=swap");
    @import url("https://fonts.googleapis.com/css?family=Montserrat:500=swap");
	.st0{fill:#1A6D61;}
	.st1{fill:#F7E1D3;}
	.st2{opacity:0.3;fill:#F7E1D3;enable-background:new    ;}
	.st3{font-family:"Montserrat"; text-transform: uppercase; color: #1a6d61; letter-spacing: 0.055em; font-weight: 500;}
	.st4{font-size: 0.58rem;}
	.st5{font-family:"Lora"; color: #1a6d61; letter-spacing: 0.02em;}
	.st6{font-size: 1.3rem;}
</style>
<g>
	<path class="st0" d="M44.5,10.5H31.7c-0.4,0-0.6,0.3-0.6,0.6v11.6c0,0.2,0.1,0.3,0.2,0.4l6.4,6.4c0.1,0.1,0.3,0.2,0.4,0.2   c0.2,0,0.3-0.1,0.4-0.2L41,27l3.9-3.9c0.1-0.1,0.2-0.3,0.2-0.4V11.1C45.1,10.8,44.9,10.5,44.5,10.5z M40.3,26h-4.4l-3.6-3.6v-1.9   c0.3-1.3,1.4-2.4,2.9-2.4c1.6,0,2.9,1.3,2.9,2.9v0.1l0,0l0,0V21c0-1.6,1.3-2.9,2.9-2.9c1.5,0,2.6,1.1,2.9,2.4v1.8L40.3,26z"></path>
	<g>
		<polygon class="st1" points="51.9,24.8 38.1,38.6 24.3,24.8 24.3,34.3 38.1,48 51.9,34.3   "></polygon>
		<path class="st0" d="M52.1,24.2c-0.2-0.1-0.5,0-0.7,0.1L38.1,37.7L24.8,24.3c-0.2-0.2-0.5-0.2-0.7-0.1s-0.4,0.3-0.4,0.6v9.5V48    c0,0.4,0.3,0.6,0.6,0.6s0.6-0.3,0.6-0.6V35.8l12.7,12.7c0.1,0.1,0.3,0.2,0.4,0.2c0.2,0,0.3-0.1,0.4-0.2l12.7-12.7V48    c0,0.4,0.3,0.6,0.6,0.6s0.6-0.3,0.6-0.6V34.3v-9.5C52.5,24.5,52.4,24.3,52.1,24.2z M38.1,47.1L24.9,34v-7.7L37.6,39    c0.2,0.2,0.7,0.2,0.9,0l12.7-12.7V34L38.1,47.1z"></path>
	</g>
	<g>
		<path class="st0" d="M38.2,0C28,0,18.6,5.1,13,13.6c-0.2,0.3-0.1,0.7,0.2,0.9s0.7,0.1,0.9-0.2c5.3-8.2,14.3-13,24.1-13    C54,1.3,66.9,14.2,66.9,30S54,58.7,38.2,58.7c-6,0-11.8-1.8-16.7-5.3v-0.1c-0.1-0.2-1.7-3.8-4.8-4.7c-3.2-0.9-6.5,1.3-6.6,1.4    c-0.3,0.2-0.3,0.5-0.2,0.8c0.1,0.2,1.7,3.8,4.8,4.7c0.5,0.2,1.1,0.2,1.6,0.2c1.9,0,3.6-0.8,4.5-1.3c5.1,3.7,11.1,5.6,17.5,5.6    c16.5,0,30-13.5,30-30S54.7,0,38.2,0z M15,54.3c-2-0.6-3.3-2.6-3.8-3.5c0.9-0.5,3.1-1.5,5.1-0.9c1.7,0.5,3,2.1,3.6,3.2l0,0    c-0.1,0.2-0.2,0.3-0.1,0.5C18.7,54,16.8,54.8,15,54.3z"></path>
		<path class="st0" d="M10.8,43.2c0-0.1-0.1-3.4-2.3-5l0,0c-2.1-1.6-5.3-1-5.4-0.9c-0.3,0.1-0.5,0.3-0.5,0.6c0,0.1,0.1,3.4,2.3,5    C6.1,43.8,7.5,44,8.6,44c1,0,1.7-0.2,1.7-0.2C10.6,43.8,10.9,43.5,10.8,43.2z M5.7,41.9C4.5,41,4.1,39.3,4,38.4    c0.9-0.1,2.6-0.1,3.8,0.8c1.2,0.9,1.6,2.6,1.7,3.5C8.6,42.8,6.9,42.9,5.7,41.9z"></path>
		<path class="st0" d="M4.5,31.3c0.3,0,0.5-0.3,0.6-0.6c0-0.1,0.2-2.2-1-3.5l0,0c-1.2-1.3-3.4-1.1-3.5-1.1c-0.3,0-0.5,0.3-0.6,0.6    c0,0.1-0.2,2.2,1,3.5c1,1,2.5,1.1,3.2,1.1C4.4,31.3,4.5,31.3,4.5,31.3z M1.9,29.3c-0.5-0.5-0.6-1.4-0.7-1.9c0.5,0,1.4,0.2,1.9,0.7    s0.6,1.4,0.7,1.9C3.3,30,2.5,29.8,1.9,29.3z"></path>
		<path class="st0" d="M15.6,46.7c0.1,0.1,0.3,0.2,0.4,0.2c0.1,0,0.3,0,0.4-0.1s2.7-2,2.9-4.7c0.2-2.7-2.1-4.9-2.2-5    c-0.2-0.2-0.6-0.2-0.8-0.1c-0.1,0.1-2.7,2-2.9,4.7C13.2,44.4,15.5,46.7,15.6,46.7z M14.7,41.8c0.1-1.5,1.3-2.8,2-3.4    c0.6,0.7,1.6,2.1,1.5,3.6s-1.3,2.8-2,3.4C15.6,44.7,14.6,43.3,14.7,41.8z"></path>
		<path class="st0" d="M8.1,32.1c-0.3,2.1,1.4,3.9,1.5,4s0.3,0.2,0.5,0.2c0.1,0,0.2,0,0.3-0.1s2.2-1.4,2.5-3.5s-1.4-3.9-1.5-4    c-0.2-0.2-0.5-0.3-0.8-0.1C10.5,28.7,8.4,30.1,8.1,32.1z M10.8,30.1c0.4,0.6,0.9,1.6,0.8,2.5c-0.1,1-0.9,1.8-1.5,2.2    c-0.4-0.6-0.9-1.6-0.8-2.5C9.5,31.3,10.3,30.5,10.8,30.1z"></path>
		<path class="st0" d="M7.5,23.4c0.1,0,0.2,0,0.3-0.1c0.1,0,1.6-1,1.8-2.5s-1-2.8-1-2.9c-0.2-0.2-0.5-0.3-0.8-0.1    c-0.1,0-1.6,1-1.8,2.5c-0.2,1.5,1,2.8,1,2.9C7.2,23.4,7.4,23.4,7.5,23.4z M7.3,20.5C7.4,20,7.7,19.6,8,19.3    c0.2,0.4,0.4,0.9,0.4,1.4c-0.1,0.5-0.4,0.9-0.7,1.2C7.4,21.5,7.2,21,7.3,20.5z"></path>
	</g>
	<path class="st2" d="M40.3,26h-4.4l-3.6-3.6v-1.9c0.3-1.3,1.4-2.4,2.9-2.4c1.6,0,2.9,1.3,2.9,2.9v0.1l0,0l0,0V21   c0-1.6,1.3-2.9,2.9-2.9c1.5,0,2.6,1.1,2.9,2.4v1.8L40.3,26z"></path>
</g>
<text transform="matrix(1 0 0 1 81.9873 27.7028)" class="st0 st5 st6">Marie-Ange Vollard</text>
<text transform="matrix(1 0 0 1 82.1772 46.16)" class="st0 st3 st4">Graphisme, illustration, Conseil</text>
</svg>