<?xml version="1.0" encoding="UTF-8" standalone="no"?>
<svg
   height="209.19296pt"
   cursor="default"
   width="879.55005pt"
   version="1.0"
   preserveAspectRatio="xMidYMid"
   viewBox="0 0 879.55005 209.19296"
   visibility="visible"
   id="svg13"
   xmlns="http://www.w3.org/2000/svg"
   xmlns:svg="http://www.w3.org/2000/svg">
  <defs
     id="defs17" />
  <text
     stroke="none"
     id="text1"
     stroke-width="1px"
     x="249.55"
     font-weight="600"
     text-rendering="geometricPrecision"
     font-family="Poppins"
     fill="#000000"
     letter-spacing="-1(null)"
     font-size="140px"
     y="154.64296"
     text-anchor="start"
     font-variant="normal"
     font-stretch="normal">Mergify</text>
  <circle
     id="white-circle-bg"
     cy="104.64297"
     fill="#ffffff"
     r="70"
     cx="104.55" />
  <g
     visibility="visible"
     id="logo"
     stroke="none"
     transform="matrix(0.1,0,0,-0.1,-0.45000003,209.64296)"
     fill="#28abe1">
    <path
       d="M 898,2090 C 669,2053 473,1954 310,1790 169,1650 76,1485 27,1291 -3,1168 -3,932 27,809 76,615 169,450 310,310 450,169 615,76 809,27 c 123,-30 359,-30 482,0 194,49 359,142 499,283 141,140 234,305 283,499 30,123 30,359 0,482 -49,194 -142,359 -283,499 -139,140 -306,235 -494,281 -93,23 -309,33 -398,19 M 738,1496 c 15,-8 35,-23 45,-34 17,-19 21,-19 65,-5 57,18 132,11 177,-16 33,-19 34,-19 96,0 172,54 294,24 352,-84 20,-39 22,-57 25,-256 l 3,-213 34,-34 c 60,-60 67,-136 18,-202 -89,-120 -273,-59 -273,92 0,51 27,109 56,120 13,5 15,34 12,212 l -3,206 -28,24 c -32,27 -84,31 -152,11 l -39,-12 3,-215 c 3,-209 3,-214 26,-232 58,-45 67,-150 18,-209 -94,-112 -273,-54 -273,88 0,53 11,83 44,113 l 26,25 v 208 c 0,194 -1,208 -20,227 -20,20 -63,26 -106,14 -11,-3 -29,-21 -39,-40 -10,-20 -27,-40 -37,-45 -16,-9 -18,-26 -18,-190 0,-149 2,-181 15,-185 28,-11 55,-69 55,-120 0,-151 -184,-212 -273,-92 -49,66 -42,142 18,203 l 35,34 v 161 161 l -35,34 c -77,77 -64,190 29,246 37,22 106,25 144,5"
       id=""
       visibility="visible" />
    <path
       d="m 610,1414.5 c -59,-59 -26,-152 54,-152 48,0 65,8 81,41 33,62 2,125 -67,136 -32,5 -41,1 -68,-25"
       visibility="visible"
       id="path1" />
    <path
       d="m 605,805 c -36,-36 -34,-88 5,-127 27,-26 36,-30 68,-25 43,7 82,46 82,83 0,32 -25,80 -45,88 -37,14 -86,6 -110,-19"
       visibility="visible"
       id="path6" />
    <path
       d="m 986,799 c -49,-58 -20,-134 56,-146 32,-5 41,-1 68,25 61,61 26,152 -59,152 -32,0 -44,-6 -65,-31"
       visibility="visible"
       id="path8" />
    <path
       d="m 1382,823 c -18,-7 -42,-57 -42,-87 0,-37 39,-76 82,-83 32,-5 41,-1 68,25 60,61 26,153 -57,151 -21,0 -44,-3 -51,-6"
       visibility="visible"
       id="path10" />
  </g>
</svg>
