<?xml version="1.0" encoding="utf-8"?>
<!-- Generator: Adobe Illustrator 22.0.1, SVG Export Plug-In . SVG Version: 6.00 Build 0)  -->
<svg version="1.1" id="Layer_1" xmlns="http://www.w3.org/2000/svg" xmlns:xlink="http://www.w3.org/1999/xlink" x="0px" y="0px"
	 viewBox="0 0 822.3 219.1" style="enable-background:new 0 0 822.3 219.1;" xml:space="preserve">
<style type="text/css">
	.st0{fill:#1C1C1C;}
	.st1{fill:#FFFFFF;}
	.st2{fill:#004F9E;}
</style>
<path class="st0" d="M243,166.9c0.3-0.1,0.6-0.2,0.9-0.3c0,0,0.5-0.2,0.7-0.2c3-1,9.7-4.5,12.2-9.5c5.1-1.9,8.8-4.5,11.1-7.6
	c4.4-0.8,7.8-2.7,9.7-3.7c4.4-2.5,7.5-4.9,9.4-7.5c1.6-2.1,2.6-3.7,3.4-5.4c1.5-0.8,3.2-1.8,5.4-3.3c7.7-5.1,9.3-14.5,9.5-15.6
	c0-0.2,0.1-0.5,0.1-0.7c0.4,0,0.8,0,1.2,0c7.7,0,17.8-4.8,23.2-7.5l0.1,0c0.8-0.4,1.6-0.8,1.9-0.9c1.8-0.8,5.5-2.8,9.3-5.3
	c4.9-3.3,8.2-6.3,10-9.1c0.3-0.4,0.5-0.9,0.7-1.4l3.2-2c0.9-0.6,1.7-1.4,2.2-2.4c0.9-0.5,1.6-0.9,1.8-1.1c2.5-1.6,3.6-4.4,2.7-7.1
	l0-0.1c-0.8-2.4-3-5.3-6.7-6.2c-1.3-2.8-4.1-4.4-7.2-4.4c-0.7,0-1.3,0.1-1.7,0.2c-0.2,0-1,0.2-7,1.7l-8.9,2.1
	c0.8-2.2,0.7-4.6-0.3-6.6c-1.2-2.5-3.7-4.1-6.3-4.1c-0.9,0-1.8,0.2-2.6,0.6l-0.1,0c-0.3,0.2-1,0.5-16.9,10.8
	c-0.2,0.1-0.4,0.3-0.6,0.4c-7.7,6.7-10.5,10.7-11.2,11.7c-0.4,0.5-1,1.5-1.6,2.8c-0.4-0.2-0.8-0.4-1.2-0.6c-3.2-1.4-6.5-2.1-9.9-2.1
	c-6.1,0-10.4,2.4-11.5,3.1c-0.6,0.3-2.9,1.7-6.3,4.4c-1.4,1.1-2.6,2.3-3.7,3.7c-2.3,0.5-4.2,1.2-5.6,1.9c-1.8,0.9-3.5,2.3-5.4,3.8
	l-0.1,0.1c-0.3,0.3-0.6,0.5-1,0.8c-0.8,0.6-2.9,2.3-4.9,5.1l-0.2,0c-0.3,0.1-2.8,0.6-6,2.1c-0.8,0.4-1.6,0.8-2.3,1.3
	c-1.8,0.1-4.6,0.4-8.3,1.5l-0.2,0c-0.3-0.1-3.1-0.6-6.5-0.6c-1.5,0-2.9,0.1-4.1,0.3c-0.8,0.1-3.7,0.6-6.1,1.3
	c-1.2,0.3-4.1,1.3-7.5,3.5c-7.3-1.7-14.6-2.2-19.2-2.4c4.4-5.9,6.5-12.7,5.8-18.5c-1.4-11-8.8-17.5-11.5-19.4
	c-4.6-19.2-18-27.4-29-28.6c-2.2-2.5-6.3-4.1-11-4.1c-1.9,0-3.7,0.2-5.5,0.7c-5.9,1.6-10.6,6.1-11.5,11
	c-5.9,4.9-15.1,15.9-12.5,35.6c-2.2,3-6.5,10.6-3.6,22.2c2,7.9,6.9,13.6,14.3,16.6c-5.7,2.8-10.7,6.1-14.9,10
	c-0.3,0.2-0.5,0.5-0.7,0.7c-9.9,0.5-18.9,4.6-26,11.9c-5.1,5.2-8.6,11.2-10.8,16.5H243z"/>
<path class="st1" d="M242.6,160.6c-2.1,0.7-5.7,2.1-10.7,2.1c-0.2,0-0.3,0-0.5,0c-5.2-0.1-11.4-2.8-15.8-7.7
	c-4.5-4.9-6.9-12.3-6.2-19.6c0.7-7.3,5.1-13.4,10.4-16.7c1.2-0.8,2.5-1.4,3.8-1.8c0.5-0.2,1.1-0.4,1.6-0.5c-0.1,0.1-0.2,0.3-0.3,0.4
	c-5.4,8-5,18.3-2.4,24.4c1.4,3.2,3,5.8,4.9,8.1c2.5,3,5.5,5.3,8.9,6.8c3.2,1.4,6.5,2.1,9.9,2.1c0.4,0,0.7,0,1.1,0
	C245.6,159.3,243.9,160.2,242.6,160.6"/>
<path class="st1" d="M253.5,151.7c-2,0.7-4.5,1.3-7.3,1.3c-2.4,0-5.1-0.5-7.8-1.7c-5.9-2.6-9.1-7.7-11.1-12.2
	c-2-4.6-2.4-12.8,1.9-19.3c2.4-3.5,5.8-5.6,8.5-6.8c-1.7,5.1-2.5,13,3.1,22.5l0,0.1l0,0.1c2.8,4.5,6.5,7.9,10.9,10.2
	c2.6,1.4,5.4,2.3,8.3,2.8C258,149.9,255.6,150.9,253.5,151.7"/>
<path class="st1" d="M274.5,140.3c-2.4,1.3-5.7,3.1-9.9,3.3c-0.2,0-0.4,0-0.6,0c-6.3,0-13.9-3-18.8-10.9c-8.8-14.8,0.8-25,4-27.5
	c1.9-1.5,3.8-3,5.3-3.9c-0.7,2-1,3.5-1,4c-0.7,3.7-0.1,8.5,1.6,12.8c2.2,5.7,6,10.3,11,13.2c4.1,2.4,8.3,3.6,12.6,3.6
	c1.2,0,2.3-0.1,3.2-0.2C279.8,137.1,276.6,139.2,274.5,140.3"/>
<path class="st1" d="M86.4,166.9c0.4-3.3,1.3-7.3,3.1-11.6c1.5-3.6,3.3-7,5.6-10.1c-6.4,1.3-12.1,4.5-16.9,9.4
	c-3.3,3.3-6.1,7.5-8.4,12.2H86.4z"/>
<path class="st1" d="M197.4,166.9c-1.1-1-2-1.9-2.8-2.7c-3.8-3.9-6.8-10.8-7.7-15.6c-1.6-7.8-0.5-15.4,3.2-22.5
	c1.2-2.2,2.6-4.3,4.3-6.1c-8.3-1.5-16.2-1.6-18.8-1.6c-0.3,0.6-0.7,1.1-1.2,1.6c-3,2.6-5.5,3.2-3.7,1.3c1.7-2,1.6-4.1,1.1-4.6
	c-0.4-0.4-1.1-0.1-1.5,0c-4.9,1.8-5.8,1-4.8,0.4c4.4-2.7,6.9-5.1,8.4-6.6c3.7-4.2,6.7-10.3,6-15.9c-0.8-6.5-4.5-11.6-8.3-14.7
	c-0.4-0.3-0.7-0.6-0.9-0.7c-0.1-0.1-0.2-0.2-0.3-0.2c0,0,0,0,0,0c0,0,0,0,0,0c-0.6-0.4-1.4-0.9-2-1.1c-1-0.3-0.7-1,0.4-1.3
	c-0.1-0.5-0.2-1.1-0.4-1.6c-0.1-0.5-0.3-1-0.4-1.5c-4.4-14.6-14.8-20.8-23.4-21.7c-0.1,0-0.2,0-0.3,0c-2-0.2-3.4-0.2-3.7-0.2
	c-1.4-0.2-0.8-0.8,0-1.1c0.3-0.1,0.4-0.4,0.3-0.6c-1-1.5-5.6-2.9-10.4-1.5c-2.5,0.7-4.7,2.3-6,3.9c-0.2,0.3-0.4,0.7-0.6,1
	c0,0.1-0.1,0.2-0.1,0.3c-0.2,0.6,0.5,0.4,0.5,0.4c2.3-0.5,3.3,0.1,1.5,1.1c-1.1,0.6-2.7,1.7-3.8,2.5c-2.6,2-6,5.3-8.4,10.3
	c-2.2,4.6-3.3,10-3.1,15.8c0.1,0.8,0.1,2.4,0.2,2.9c0.1,0.6,0.5,1.2,1.9,1c1.9-0.2,3.1-0.6,1.4,0.8c-0.7,0.5-2.9,2.6-4.2,4.2
	c-2.6,3.3-4.6,9.4-2.6,17.1c1.7,6.6,5.8,11,12.3,13.1c3.9,1.1,12.8,2.6,19.7,2.2c0.7,0,0.9,0.1,0.8,0.4c-0.1,0.3-0.6,0.5-1.3,0.6
	c-1.1,0.2-3.5,0.6-7.6,1c-0.9,0.1-1.6,0.7-1.7,1.1c0,0,0,0,0,0.1c-0.5,1.8,3.2,3.3,3.6,3.5c1.4,0.4,0.8,1.2,0.2,1.3
	c-2.6,0.5-7.3-0.6-9.8-0.8c-1.7-0.1-3,0.2-3.5,0.5c-5.9,2.6-10.9,5.9-15,9.7c-4.6,4.3-8.1,9.4-10.4,15c-1.4,3.5-2.2,6.8-2.6,9.6
	H197.4z"/>
<path class="st1" d="M198.3,160.5c2.2,2.3,4.7,4.7,8.7,6.4h18c-1.3-0.4-2.7-0.9-4-1.5c-3.5-1.6-6.7-4-9.2-6.8
	c-2.7-3-4.8-6.7-6.2-10.9c-1.3-4.1-1.8-8.6-1.4-12.8c0.4-4.3,1.9-8.5,4.3-12.2c1.6-2.6,3.7-4.8,6-6.7c-0.2,0-0.5,0.1-0.7,0.1
	c0,0-3.1,0.4-5.3,1.1c-2.2,0.7-9.8,3.5-13.8,11.3c-4.1,7.8-3.6,14.6-2.7,19C192.9,152,195.6,157.8,198.3,160.5"/>
<path class="st1" d="M356.1,79.2c-0.5,0.3-1.2,0.7-1.8,1.1c0,0,0-0.1,0-0.1c-0.9-1.5-2.1-2.5-3.6-2.8c-2.3-0.5-5.2,0.4-9,2.9
	c-5.6,3.6-14.3,5.7-14.4,5.7c-0.6,0.1-1,0.7-0.8,1.3c0.1,0.5,0.6,0.9,1.1,0.9c0.1,0,0.2,0,0.3,0c0.4-0.1,9.2-2.2,15.1-6
	c3.2-2.1,5.7-3,7.3-2.6c0.8,0.2,1.4,0.6,1.9,1.5c0,0,0,0,0,0c0.7,1.1,0.1,1.7,0,1.7c-0.1,0-2.8,1.8-4,2.5c-0.6-0.6-1.8-1.6-3.6-1.8
	c-2-0.2-4.1,0.7-6.2,2.7c-5.1,4.8-10.6,6.3-10.7,6.4c-0.6,0.2-0.9,0.8-0.8,1.4c0.1,0.5,0.6,0.8,1.1,0.8c0.1,0,0.2,0,0.3,0
	c0.2-0.1,6.1-1.7,11.6-6.9c1.6-1.5,3.1-2.2,4.4-2.1c1.3,0.1,2.1,1,2.3,1.2c0.1,0.1,0.3,0.5,0,0.9c-3.1,4.9-13.9,11.1-17,12.4
	c-2.3,1-11.5,5.9-19,7.5c-0.8,0.2-1.7,0.3-2.5,0.4c-0.1,0-0.2,0-0.3,0c-1.1,0-6.2,0.1-7.7-1.4c-2.2-2.2-3-0.6-2.3,2.2
	c-2.4,1.5-6,3.6-6.9,4.2c-2.5,1.5-5.7-0.2-6.3-0.2c-1.3,0,1.8,3.9,4.4,4.3c2.8,0.4,8-2.9,8-2.9l2-1.3c0,0,0,0,0,0
	c0,0-1.2,7.6-6.8,11.4c-3.5,2.3-5,3.1-6.3,3.7c-0.9,0.4-3.5,1.8-7.4,1.8c-2.8,0-6.1-0.7-9.9-2.9c-9.1-5.4-10.9-16-10.1-20.7
	c0,0,1-7,6.4-11.1c3.6-2.8,5.7-4,5.7-4s3.4-2.2,8.4-2.2c2.2,0,4.7,0.4,7.3,1.6c-0.8,0.6-1.5,1.2-1.9,1.7c-1,1.6-2.5,5.1-1.5,5.1
	c0.7,0,1.2-1.8,3.6-3c1.2-0.6,6.8-3.9,6.8-3.9s0.2-0.9,0.5-1.4c0,0,0.7-1.5,2.1-3.6c0.1-0.1,0.3-0.4,0.6-0.9
	c0.8-1.1,1.9-2.4,3.2-3.6c0,0,0,0,0,0c1.5-1.6,3.6-3.6,6.4-6.1c0,0,15.6-10.1,16.3-10.5c0.1-0.1,0.3-0.1,0.4-0.1
	c1.3,0,3.2,2.3,0.9,5.4c-1.9,2.5-4.1,4.2-5.8,5.5c-0.5,0.4-1.2,0.8-1.7,1c-2.4,0.8-5.5,2.7-6,3.1c-0.5,0.4-0.5,1.1,0.1,0.8
	c2.1-0.9,5.4-1.7,6-1.9c3.6-0.8,29.7-7.1,30.1-7.2c0.1,0,0.4-0.1,0.6-0.1c0.9,0,2.4,0.3,2.8,2.2c0,0.1,0,0.1,0,0.2l-23.9,7.1
	c-0.6,0.2-0.9,0.8-0.7,1.4c0.1,0.4,0.5,0.7,0.9,0.8c0.2,0,0.4,0,0.5,0l21.3-6.3c0.4-0.1,1.2-0.3,2.8-0.8l0.2-0.1
	c0.5-0.1,0.9-0.2,1.3-0.2c2.2,0,3.5,1.8,3.9,2.9C356.7,78.6,356.5,78.9,356.1,79.2"/>
<path class="st0" d="M135.6,99.1c-1.4,1-1.7,1.7-1.9,2.2c-0.2,0.5-0.2,1-0.1,1.2c0.1,0.2,0,0.5-0.2,0.6h0h0c0,0,0,0,0,0
	c-0.2,0.1-0.4,0-0.5,0c-0.1-0.1-0.2-0.2-0.3-0.3c-0.4-0.9,0-2.9,1-3.8c0.4-0.4,0.9-0.7,1.4-0.9c0.2-0.1,0.7-0.3,1,0.1
	C136.2,98.6,135.9,98.9,135.6,99.1 M168.4,92.7c-0.3,0.1-0.4-0.3-0.6-0.8c-0.9,1.2-2.9,3.1-3.2,3.5c-0.4,0.6-0.8,1.2-1.2,1.8
	c-0.6,1.1-1.1,2.1-1.9,3.1c-1,1.3-2.2,2.5-3.6,3.3c-2.7,1.6-6,2.4-9.1,1.9c-1.6-0.3-3.2-0.9-4.7-1.6c-1.2-0.6-2.5-1.3-3.8-1.4
	c-1.5,0-3.1,0.1-4.6-0.1c-0.5-0.1-1-0.3-1.1-0.8c-0.2-0.7,0.3-1.5,1-1.5l0,0c0.2,0,0.5,0.1,0.7,0.1c0.5,0,1,0.1,1.5,0.1
	c5.4,0.2,11-0.7,16.1-2.3c3.2-1,6.3-2.3,9-4.2c1.1-0.8,2.2-1.7,3.1-2.7c0.1-0.2,0.3-0.4,0.4-0.5c-0.1-0.1-0.2-0.1-0.3-0.1
	c-0.3-0.1-0.3-0.6,0.2-0.7c0.5-0.1,1.2,0.1,1.5,0.4c0.3,0.3,0.5,0.7,0.6,1.3C168.8,91.9,168.8,92.6,168.4,92.7 M161.2,97.3
	c-4.8,2.6-10.3,4-15.7,4.7c1.5,0.7,3,1.2,4.6,1.4c1.5,0.1,2.9-0.1,4.3-0.5c1.4-0.4,2.8-1.1,4-2C159.6,99.8,160.5,98.6,161.2,97.3
	 M130.7,85.7c-0.9-1.6-1.4-3.4-1.7-5.2c-0.3-1.8-0.4-3.7,0-5.5c0.3-1.8,1.1-3.4,2.6-4.4c1.2-0.9,2.7-1.4,4.2-1.4
	c0.4,0,0.8,0,1.2,0.1c3.8,0.8,5.6,3.9,7.1,8.3c1.7,4.8,0.5,10.8-2.6,12.1c-0.8,0.3-2,0.7-2,0.7c-0.8,0.2-1.6,0.4-2.4,0.4
	c-0.9,0-1.8-0.2-2.6-0.7C132.8,89,131.6,87.3,130.7,85.7 M132,85c0.9,1.7,2,3,3.2,3.7c0.6,0.3,1.2,0.5,1.9,0.5c0.6,0,1.2-0.1,2-0.3
	l0,0c0.3-0.1,1.3-0.4,1.8-0.6c1-0.4,1.8-1.8,2.2-3.6c0.1-0.7,0.2-1.4,0.2-2.1c-0.2,2.3-1.4,4.1-3,4.4c-2.4,0.6-5.1-2-6-5.8
	c-0.2-1-0.3-2-0.3-2.9c0.5,0.6,1.1,0.9,1.8,0.7c0.9-0.2,1.4-1.4,1.1-2.6c-0.3-0.9-1-1.6-1.7-1.7c0.5-0.7,1.2-1.2,1.9-1.4
	c1.8-0.4,3.7,0.8,4.9,3c0-0.1-0.1-0.2-0.1-0.3c-1.2-2.4-3.3-4.9-7.3-3.8c-5.3,1.4-4.1,8.3-3.5,10.4C131.3,83.4,131.6,84.2,132,85
	 M156.8,84C156.8,84,156.8,84,156.8,84C156.8,84,156.7,83.9,156.8,84C156.7,83.9,156.7,84,156.8,84 M150.5,77.5
	c-0.4-1.6-1-4-0.8-6.3c0.2-3.3,1.9-5.2,3.9-5.9c2.5-0.8,5.2,0.5,6.7,2.4c0.9,1.1,1.7,2.7,2.4,4.3c0.2,0.5,0.5,1.1,0.7,1.7
	c0.6,1.8,0.9,3.6,0.8,5.3c-0.1,1-0.2,2-0.6,2.8c-0.3,0.9-0.9,2.1-1.9,2.7c-0.7,0.4-1.5,0.5-2.1,0.7l0,0c-0.6,0.1-1.2,0.2-1.9,0.2
	c-0.4,0-0.8,0-1.2-0.1c-0.1,0-0.1,0-0.2,0l0,0c0,0,0,0,0,0l0,0c0,0-0.1,0-0.1,0l0,0l0,0c-1.7-0.5-2.7-1.8-3.6-2.9
	c-0.7-1-1.2-2.1-1.6-3.1l0,0c0,0-0.1-0.2-0.2-0.6c-0.1-0.2-0.2-0.5-0.2-0.7l0,0l0,0C150.6,77.7,150.6,77.6,150.5,77.5 M151.4,73.1
	c0,1.4,0.2,3,0.6,4.4c0.4,1.4,1,2.8,1.8,4c0.7,1,1.6,2,2.9,2.4c0,0,0,0,0,0c0,0,0,0,0.1,0c0.1,0,0.1,0,0.1,0c0,0,0,0,0,0
	c0.3,0.1,0.6,0.1,0.9,0.1c0.5,0,1-0.1,1.6-0.2c0.6-0.1,1.2-0.3,1.8-0.6c0.7-0.4,1-1.2,1.3-1.9c0.3-0.8,0.4-1.6,0.5-2.4
	c0.1-1.4-0.1-2.9-0.6-4.3c0,0.1,0,0.1,0,0.2c0.8,3.7-0.3,7-2.5,7.5c-2.2,0.5-4.6-2.1-5.4-5.7c-0.2-1-0.3-1.9-0.3-2.8
	c0.4,0.6,1.1,1,1.8,0.8c0.9-0.2,1.4-1.4,1.1-2.5c-0.3-1-1.1-1.7-1.9-1.7c0.4-0.6,1-1.1,1.7-1.2c1.4-0.3,2.9,0.6,4,2.4
	c-0.3-0.5-0.6-1-0.9-1.5c-0.8-1.1-2-2.2-3.4-2.5c-0.2,0-0.5-0.1-0.7-0.1c-1.3,0-2.6,0.6-3.3,1.6C151.6,70.2,151.4,71.7,151.4,73.1"
	/>
<path class="st2" d="M448.4,100.9L433,142.6h20.2l15.4-41.7H448.4z M763.7,100.9l-10.5,28.6c0.1-2.9,0.7-14.3,1.1-20.8
	c0.1-2.7-0.4-4.8-1.7-6.1c-1.6-1.7-3.6-1.7-3.7-1.7h-23.5L710,142.6H727l10.9-29.6l-1.3,29.6h28.6l15.4-41.7H763.7z M408.4,100.9
	l-14.8,22.4c0,0,0.9-11.7,1.2-14.6c0.2-2.1-0.1-7.9-5.3-7.9h-23.4l-15.4,41.7H369l11.1-30.2l-2.3,30.2h16.3l20-29.7l-10.9,29.7h18.4
	l15.4-41.7H408.4z M562.8,100.9l-5.6,15h-10.2l5.5-15h-19.3L518,142.6h19.2l5.2-14.1h10.2l-5.2,14.1h19.2l15.4-41.7H562.8z
	 M496.6,101.2c-12.2,2.5-28.8,11.5-28.7,27.9c0.1,9.5,11.5,14.7,24.7,14.4c7.4-0.2,14.4-1.5,15.2-1.7l4.9-12.6
	c-6.4,1-12.6,2.6-17.5,0.6c-8.7-3.5-3.4-12.6,2.8-15.4c2.7-1.2,6.4-2.4,10.9-2.3c1.8,0,6.4,0.1,8.1,4.1l6.1-14.7
	C512.6,98.9,502.1,100.1,496.6,101.2z M608.5,111.8h23.1l4.1-10.9h-42.1l-15.4,41.7h42.6l4.1-11.3h-23.5l1.7-4.6h22l3.8-10.3h-22
	L608.5,111.8z M693.7,100.9l-15.4,41.7h20.2l15.4-41.7H693.7z M666.2,100.9h-19.7l-15.4,41.7h39.5l5.1-13.9h-19.8L666.2,100.9z"/>
<polygon class="st2" points="756.2,166.9 45.6,166.9 41.7,177.4 752.4,177.4 "/>
</svg>
