<?xml version="1.0" encoding="UTF-8"?>
<svg xmlns="http://www.w3.org/2000/svg" xmlns:xlink="http://www.w3.org/1999/xlink" viewBox="0 0 730 240" version="1.2">
<g transform="translate(790 -160) rotate(90)">
<path style=" stroke:none;fill-rule:nonzero;fill:rgb(18.981934%,7.531738%,5.366516%);fill-opacity:1;" d="M 356.777344 552.324219 L 356.777344 540.203125 C 356.777344 537.976562 357.59375 536.03125 359.203125 534.421875 C 360.894531 532.730469 362.816406 531.90625 365.078125 531.90625 L 367.96875 531.90625 C 369.914062 531.90625 371.558594 532.609375 373.003906 534.046875 C 374.464844 535.511719 375.144531 537.140625 375.144531 539.175781 L 375.144531 552.324219 Z M 340.34375 537.277344 C 341.683594 538.558594 342.335938 540.308594 342.335938 542.628906 L 342.335938 552.324219 L 328.722656 552.324219 L 328.722656 541.597656 C 328.722656 539.679688 329.234375 538.382812 330.492188 537.125 C 331.796875 535.816406 333.136719 535.261719 334.96875 535.261719 C 337.265625 535.261719 338.871094 535.863281 340.34375 537.277344 M 348.109375 525.109375 C 344.359375 522.257812 339.945312 520.816406 334.96875 520.816406 C 329.339844 520.816406 324.425781 522.878906 320.371094 526.929688 C 316.328125 530.863281 314.277344 535.800781 314.277344 541.597656 L 314.277344 561.925781 C 314.277344 564.773438 316.269531 566.769531 319.121094 566.769531 L 384.75 566.769531 C 387.558594 566.769531 389.59375 564.730469 389.59375 561.925781 L 389.59375 539.175781 C 389.59375 533.246094 387.460938 528.101562 383.253906 523.894531 C 378.988281 519.625 373.84375 517.460938 367.96875 517.460938 L 365.078125 517.460938 C 360.777344 517.460938 356.710938 518.65625 353.007812 521.007812 C 351.140625 522.15625 349.496094 523.535156 348.109375 525.109375 "/>
<path style=" stroke:none;fill-rule:nonzero;fill:rgb(18.981934%,7.531738%,5.366516%);fill-opacity:1;" d="M 338.695312 491.03125 C 335.582031 491.03125 333.09375 489.996094 330.863281 487.769531 C 328.730469 485.640625 327.695312 483.109375 327.695312 480.03125 C 327.695312 476.953125 328.730469 474.421875 330.863281 472.292969 C 333.089844 470.066406 335.578125 469.027344 338.695312 469.027344 L 365.449219 469.027344 C 368.617188 469.027344 371 470.03125 373.191406 472.292969 C 375.386719 474.488281 376.453125 477.019531 376.453125 480.03125 C 376.453125 483.042969 375.375 485.582031 373.148438 487.8125 C 371.023438 490.011719 368.578125 491.03125 365.449219 491.03125 Z M 313.25 480.03125 C 313.25 487.019531 315.761719 493.074219 320.710938 498.023438 C 325.65625 502.96875 331.710938 505.476562 338.695312 505.476562 L 365.449219 505.476562 C 372.4375 505.476562 378.492188 502.96875 383.4375 498.023438 C 388.386719 493.074219 390.894531 487.019531 390.894531 480.03125 C 390.894531 473.039062 388.386719 466.988281 383.4375 462.042969 C 378.492188 457.09375 372.4375 454.585938 365.449219 454.585938 L 338.695312 454.585938 C 331.710938 454.585938 325.65625 457.09375 320.710938 462.042969 C 315.761719 466.988281 313.25 473.039062 313.25 480.03125 "/>
<path style=" stroke:none;fill-rule:nonzero;fill:rgb(18.981934%,7.531738%,5.366516%);fill-opacity:1;" d="M 375.144531 350.117188 L 375.144531 359.160156 L 328.722656 359.160156 L 328.722656 352.542969 C 328.722656 348.957031 329.9375 346.027344 332.449219 343.589844 C 335.023438 341.015625 337.953125 339.765625 341.402344 339.765625 L 364.796875 339.765625 C 367.730469 339.765625 370.035156 340.742188 372.074219 342.847656 C 374.167969 344.9375 375.144531 347.25 375.144531 350.117188 M 314.277344 352.542969 L 314.277344 368.761719 C 314.277344 371.613281 316.269531 373.605469 319.121094 373.605469 L 384.75 373.605469 C 387.554688 373.605469 389.59375 371.570312 389.59375 368.761719 L 389.59375 350.117188 C 389.59375 343.316406 387.148438 337.421875 382.320312 332.589844 C 377.492188 327.765625 371.597656 325.324219 364.796875 325.324219 L 341.402344 325.324219 C 333.980469 325.324219 327.519531 328.019531 322.203125 333.339844 C 316.941406 338.597656 314.277344 345.054688 314.277344 352.542969 "/>
<path style=" stroke:none;fill-rule:nonzero;fill:rgb(18.981934%,7.531738%,5.366516%);fill-opacity:1;" d="M 375.144531 271.5625 L 375.144531 295.519531 L 356.6875 295.519531 L 356.6875 275.570312 C 356.6875 272.863281 354.601562 270.820312 351.839844 270.820312 L 347.085938 270.820312 C 344.234375 270.820312 342.242188 272.777344 342.242188 275.570312 L 342.242188 295.519531 L 328.722656 295.519531 L 328.722656 272.214844 C 328.722656 269.453125 326.636719 267.367188 323.875 267.367188 L 319.121094 267.367188 C 316.316406 267.367188 314.277344 269.40625 314.277344 272.214844 L 314.277344 305.125 C 314.277344 307.976562 316.269531 309.96875 319.121094 309.96875 L 384.75 309.96875 C 387.554688 309.96875 389.59375 307.929688 389.59375 305.125 L 389.59375 271.5625 C 389.59375 268.757812 387.554688 266.714844 384.75 266.714844 L 379.992188 266.714844 C 377.183594 266.714844 375.144531 268.757812 375.144531 271.5625 "/>
<path style=" stroke:none;fill-rule:nonzero;fill:rgb(18.981934%,7.531738%,5.366516%);fill-opacity:1;" d="M 352.585938 221.304688 L 352.585938 231.988281 L 334.574219 226.671875 Z M 317.632812 217.734375 C 315.5625 218.425781 314.277344 220.171875 314.277344 222.292969 L 314.277344 231.054688 C 314.277344 233.207031 315.558594 234.917969 317.722656 235.636719 L 382.835938 255.546875 C 383.410156 255.804688 384.054688 255.941406 384.75 255.941406 C 387.554688 255.941406 389.59375 253.902344 389.59375 251.097656 L 389.59375 246.15625 C 389.59375 243.914062 388.1875 242.054688 386.148438 241.542969 L 367.03125 235.65625 L 367.03125 217.699219 L 386.269531 211.859375 L 386.53125 211.765625 C 388.449219 211.003906 389.59375 209.292969 389.59375 207.1875 L 389.59375 202.246094 C 389.59375 199.488281 387.511719 197.402344 384.75 197.402344 C 384.050781 197.402344 383.40625 197.539062 382.960938 197.757812 Z M 317.632812 217.734375 "/>
<path style=" stroke:none;fill-rule:nonzero;fill:rgb(18.981934%,7.531738%,5.366516%);fill-opacity:1;" d="M 314.277344 143.535156 L 314.277344 148.292969 C 314.277344 151.097656 316.316406 153.136719 319.121094 153.136719 L 367.03125 153.136719 C 369.769531 153.136719 371.867188 153.988281 373.65625 155.839844 C 375.539062 157.71875 376.453125 159.882812 376.453125 162.457031 C 376.453125 165.066406 375.554688 167.183594 373.609375 169.132812 C 371.847656 170.953125 369.636719 171.875 367.03125 171.875 L 319.121094 171.875 C 316.269531 171.875 314.277344 173.871094 314.277344 176.71875 L 314.277344 181.476562 C 314.277344 184.285156 316.316406 186.324219 319.121094 186.324219 L 367.03125 186.324219 C 373.585938 186.324219 379.261719 183.96875 383.90625 179.332031 C 388.542969 174.691406 390.894531 169.011719 390.894531 162.457031 C 390.894531 155.90625 388.535156 150.21875 383.875 145.558594 C 379.207031 141.003906 373.539062 138.691406 367.03125 138.691406 L 319.121094 138.691406 C 316.269531 138.691406 314.277344 140.6875 314.277344 143.535156 "/>
<path style=" stroke:none;fill-rule:nonzero;fill:rgb(18.981934%,7.531738%,5.366516%);fill-opacity:1;" d="M 351.765625 93.53125 L 320.96875 76.707031 L 320.089844 76.390625 C 318.054688 75.941406 316.671875 76.609375 315.867188 77.253906 C 315.222656 77.773438 314.140625 78.957031 314.140625 81.050781 L 314.140625 85.898438 C 314.140625 87.894531 315.238281 89.566406 316.898438 90.210938 L 337.359375 101.433594 L 317.011719 112.605469 C 315.238281 113.300781 314.140625 114.96875 314.140625 116.96875 L 314.140625 121.8125 C 314.140625 123.914062 315.222656 125.097656 315.867188 125.613281 C 316.667969 126.257812 318.050781 126.929688 320.21875 126.433594 L 321.09375 126.097656 L 351.765625 109.335938 L 382.339844 126.101562 L 382.984375 126.367188 C 385.199219 127.03125 386.71875 126.246094 387.421875 125.71875 C 388.121094 125.199219 389.300781 123.996094 389.300781 121.773438 L 389.300781 116.835938 C 389.300781 114.914062 388.207031 113.277344 386.449219 112.488281 L 366.222656 101.433594 L 386.375 90.410156 C 388.207031 89.59375 389.300781 87.957031 389.300781 86.027344 L 389.300781 81.089844 C 389.300781 78.878906 388.125 77.675781 387.425781 77.15625 C 386.71875 76.625 385.199219 75.839844 382.882812 76.53125 Z M 351.765625 93.53125 "/>
<path style=" stroke:none;fill-rule:nonzero;fill:rgb(18.981934%,7.531738%,5.366516%);fill-opacity:1;" d="M 335.527344 406.171875 L 339.257812 406.171875 C 341.152344 406.171875 342.574219 406.78125 344.011719 408.21875 C 345.449219 409.65625 346.0625 411.082031 346.0625 412.980469 L 346.0625 424.539062 L 328.722656 424.539062 L 328.722656 412.980469 C 328.722656 411.09375 329.347656 409.550781 330.617188 408.28125 C 332.164062 406.800781 333.632812 406.171875 335.527344 406.171875 M 382.847656 389.453125 L 357.820312 402.585938 C 356.878906 400.941406 355.683594 399.394531 354.265625 397.972656 C 350.117188 393.828125 345.070312 391.726562 339.257812 391.726562 L 335.527344 391.726562 C 329.652344 391.726562 324.574219 393.828125 320.429688 397.972656 C 316.347656 402.050781 314.277344 407.097656 314.277344 412.980469 L 314.277344 434.136719 C 314.277344 436.988281 316.269531 438.984375 319.121094 438.984375 L 384.75 438.984375 C 387.554688 438.984375 389.59375 436.945312 389.59375 434.136719 L 389.59375 429.378906 C 389.59375 426.621094 387.511719 424.539062 384.75 424.539062 L 360.507812 424.539062 L 360.507812 416.84375 L 386.386719 403.308594 C 388.234375 402.488281 389.339844 400.84375 389.339844 398.910156 L 389.339844 393.96875 C 389.339844 391.75 388.164062 390.546875 387.464844 390.03125 C 386.753906 389.503906 385.230469 388.714844 383.019531 389.382812 C 382.960938 389.398438 382.902344 389.421875 382.847656 389.453125 "/>
<path style=" stroke:none;fill-rule:nonzero;fill:rgb(18.981934%,7.531738%,5.366516%);fill-opacity:1;" d="M 332.023438 611.785156 C 330.566406 611.785156 329.332031 612.269531 328.316406 613.332031 C 327.257812 614.390625 326.769531 615.628906 326.769531 617.039062 C 326.769531 618.496094 327.257812 619.777344 328.316406 620.789062 C 329.332031 621.804688 330.566406 622.335938 332.023438 622.335938 L 338.734375 622.335938 C 340.191406 622.335938 341.425781 621.804688 342.484375 620.789062 C 343.5 619.777344 344.03125 618.496094 344.03125 617.039062 C 344.03125 615.582031 343.5 614.347656 342.484375 613.332031 C 341.425781 612.269531 340.191406 611.785156 338.734375 611.785156 Z M 346.636719 609.003906 L 346.636719 610.460938 C 346.636719 610.816406 346.457031 610.949219 346.148438 610.949219 L 345.753906 610.949219 C 345.398438 610.949219 345.265625 611.125 345.265625 611.433594 C 345.265625 611.566406 345.265625 611.652344 345.355469 611.699219 C 346.636719 613.332031 347.253906 615.097656 347.253906 617.039062 C 347.253906 619.378906 346.414062 621.363281 344.738281 623.042969 C 343.058594 624.722656 341.070312 625.558594 338.734375 625.558594 L 332.023438 625.558594 C 329.683594 625.558594 327.699219 624.722656 326.023438 623.042969 C 324.34375 621.410156 323.550781 619.378906 323.550781 617.039062 C 323.550781 615.40625 323.945312 613.902344 324.828125 612.582031 C 324.875 612.492188 324.917969 612.40625 324.917969 612.226562 C 324.917969 611.917969 324.785156 611.785156 324.519531 611.785156 L 315.074219 611.785156 C 314.722656 611.785156 314.589844 611.609375 314.589844 611.300781 L 314.589844 609.003906 C 314.589844 608.695312 314.722656 608.566406 315.074219 608.566406 L 346.148438 608.566406 C 346.457031 608.566406 346.636719 608.695312 346.636719 609.003906 "/>
<path style=" stroke:none;fill-rule:nonzero;fill:rgb(18.981934%,7.531738%,5.366516%);fill-opacity:1;" d="M 331.625 590.074219 C 330.304688 590.074219 329.15625 590.515625 328.183594 591.484375 C 327.214844 592.457031 326.769531 593.601562 326.769531 594.929688 C 326.769531 596.25 327.214844 597.402344 328.183594 598.328125 C 329.15625 599.296875 330.304688 599.785156 331.625 599.785156 L 333.128906 599.785156 C 333.4375 599.785156 333.613281 599.609375 333.613281 599.296875 L 333.613281 590.515625 C 333.613281 590.203125 333.4375 590.074219 333.128906 590.074219 Z M 336.835938 587.292969 L 336.835938 599.296875 C 336.835938 599.609375 337.011719 599.785156 337.320312 599.785156 L 338.691406 599.785156 C 340.191406 599.785156 341.425781 599.253906 342.441406 598.238281 C 343.503906 597.179688 344.03125 595.945312 344.03125 594.488281 C 344.03125 592.632812 343.503906 590.957031 342.441406 589.453125 C 342.265625 589.234375 342.308594 589.011719 342.53125 588.835938 L 344.429688 587.511719 C 344.648438 587.335938 344.914062 587.378906 345.089844 587.644531 C 346.546875 589.628906 347.253906 591.929688 347.253906 594.488281 C 347.253906 596.824219 346.414062 598.8125 344.738281 600.488281 C 343.058594 602.167969 341.074219 603.007812 338.691406 603.007812 L 331.625 603.007812 C 329.375 603.007812 327.476562 602.210938 325.890625 600.621094 C 324.34375 599.035156 323.550781 597.136719 323.550781 594.929688 C 323.550781 592.675781 324.34375 590.777344 325.933594 589.1875 C 327.523438 587.601562 329.417969 586.851562 331.625 586.851562 L 336.351562 586.851562 C 336.660156 586.851562 336.835938 586.980469 336.835938 587.292969 "/>
<path style=" stroke:none;fill-rule:nonzero;fill:rgb(18.981934%,7.531738%,5.366516%);fill-opacity:1;" d="M 246.613281 755.421875 L 269.175781 755.421875 C 273.398438 755.421875 277.046875 753.960938 280.105469 750.902344 C 283.167969 747.839844 284.625 744.339844 284.625 739.96875 C 284.625 735.742188 283.167969 732.097656 280.105469 729.183594 C 277.046875 726.121094 273.398438 724.519531 269.175781 724.519531 L 220.492188 724.519531 C 219.46875 724.519531 219.035156 724.082031 219.035156 723.0625 L 219.035156 715.480469 C 219.035156 714.460938 219.46875 713.878906 220.492188 713.878906 L 269.175781 713.878906 C 276.316406 713.878906 282.4375 716.503906 287.539062 721.601562 C 292.640625 726.703125 295.265625 732.828125 295.265625 739.96875 C 295.265625 747.109375 292.640625 753.378906 287.539062 758.480469 C 282.4375 763.582031 276.316406 766.0625 269.175781 766.0625 L 257.550781 766.0625 Z M 246.613281 755.421875 "/>
<path style=" stroke:none;fill-rule:nonzero;fill:rgb(18.981934%,7.531738%,5.366516%);fill-opacity:1;" d="M 237.125 544.730469 L 270.320312 556.78125 C 270.90625 557.074219 271.050781 557.367188 271.050781 557.949219 C 271.050781 558.382812 270.90625 558.824219 270.320312 558.96875 L 220.445312 577.042969 C 219.425781 577.476562 218.816406 578.0625 218.816406 578.9375 L 218.816406 586.808594 C 218.816406 588.265625 219.71875 588.847656 221.175781 588.265625 L 292.066406 562.46875 C 292.941406 562.171875 293.578125 561.738281 293.578125 560.863281 L 293.578125 554.886719 C 293.578125 554.160156 293.027344 553.574219 292.152344 553.285156 L 243.945312 535.847656 Z M 237.125 544.730469 "/>
<path style=" stroke:none;fill-rule:nonzero;fill:rgb(18.981934%,7.531738%,5.366516%);fill-opacity:1;" d="M 248.414062 434.355469 L 291.75 434.355469 C 292.769531 434.355469 293.351562 434.9375 293.351562 435.957031 L 293.351562 443.390625 C 293.351562 444.410156 292.769531 444.992188 291.75 444.992188 L 260.847656 444.992188 Z M 248.414062 434.355469 "/>
<path style=" stroke:none;fill-rule:nonzero;fill:rgb(18.981934%,7.531738%,5.366516%);fill-opacity:1;" d="M 230.472656 366.171875 C 228.75 370.65625 227.914062 375.417969 227.914062 380.460938 C 227.914062 383.230469 228.785156 385.5625 230.828125 387.605469 C 232.722656 389.5 235.054688 390.375 237.824219 390.375 C 242.632812 390.375 245.695312 388.042969 247.007812 383.230469 L 251.089844 367.925781 C 252.398438 362.824219 255.171875 358.890625 259.105469 355.828125 C 263.039062 352.914062 267.5625 351.3125 272.515625 351.3125 C 278.929688 351.3125 284.320312 353.640625 288.839844 358.160156 C 293.214844 362.679688 295.546875 368.070312 295.546875 374.339844 C 295.546875 384.980469 292.921875 394.894531 287.527344 403.78125 C 286.945312 404.804688 286.214844 404.949219 285.195312 404.367188 L 278.78125 400.574219 C 277.910156 400.140625 277.910156 399.410156 278.34375 398.535156 C 282.71875 391.101562 284.90625 382.9375 284.90625 374.339844 C 284.90625 370.984375 283.738281 368.070312 281.261719 365.59375 C 278.929688 363.261719 276.011719 361.949219 272.515625 361.949219 C 270.035156 361.949219 267.703125 362.824219 265.519531 364.429688 C 263.332031 366.035156 262.167969 368.070312 261.4375 370.550781 L 257.210938 386 C 256.046875 390.519531 253.566406 394.164062 249.921875 396.933594 C 246.277344 399.703125 242.199219 401.015625 237.824219 401.015625 C 232.140625 401.015625 227.328125 399.117188 223.25 395.039062 C 219.167969 390.957031 217.273438 386.144531 217.273438 380.460938 C 217.273438 374.09375 218.359375 367.9375 220.636719 362.105469 Z M 230.472656 366.171875 "/>
<path style=" stroke:none;fill-rule:nonzero;fill:rgb(18.981934%,7.531738%,5.366516%);fill-opacity:1;" d="M 293.203125 322.398438 L 293.203125 329.832031 C 293.203125 331 292.617188 331.4375 291.601562 331.4375 L 220.46875 331.4375 C 219.449219 331.4375 219.011719 331 219.011719 329.832031 L 219.011719 322.398438 C 219.011719 321.382812 219.449219 320.796875 220.46875 320.796875 L 291.601562 320.796875 C 292.617188 320.796875 293.203125 321.382812 293.203125 322.398438 M 203.414062 321.089844 C 204.871094 322.398438 205.601562 324.152344 205.601562 326.191406 C 205.601562 328.085938 204.871094 329.832031 203.414062 331.148438 C 202.105469 332.605469 200.351562 333.332031 198.460938 333.332031 C 196.421875 333.332031 194.671875 332.605469 193.359375 331.148438 C 191.898438 329.832031 191.316406 328.085938 191.316406 326.191406 C 191.316406 324.152344 191.898438 322.398438 193.359375 321.089844 C 194.671875 319.632812 196.421875 318.902344 198.460938 318.902344 C 200.351562 318.902344 202.105469 319.632812 203.414062 321.089844 "/>
<path style=" stroke:none;fill-rule:nonzero;fill:rgb(18.981934%,7.531738%,5.366516%);fill-opacity:1;" d="M 243.519531 201.355469 C 239.144531 201.355469 235.355469 202.8125 232.148438 206.019531 C 228.941406 209.222656 227.484375 213.011719 227.484375 217.386719 C 227.484375 221.761719 228.941406 225.550781 232.148438 228.609375 C 235.355469 231.816406 239.144531 233.421875 243.519531 233.421875 L 248.476562 233.421875 C 249.496094 233.421875 250.078125 232.835938 250.078125 231.816406 L 250.078125 202.8125 C 250.078125 201.789062 249.496094 201.355469 248.476562 201.355469 Z M 260.71875 192.171875 L 260.71875 231.816406 C 260.71875 232.835938 261.300781 233.421875 262.320312 233.421875 L 266.839844 233.421875 C 271.792969 233.421875 275.875 231.671875 279.230469 228.316406 C 282.726562 224.820312 284.476562 220.738281 284.476562 215.929688 C 284.476562 209.808594 282.726562 204.269531 279.230469 199.308594 C 278.644531 198.582031 278.792969 197.855469 279.519531 197.269531 L 285.789062 192.898438 C 286.515625 192.316406 287.394531 192.460938 287.976562 193.335938 C 292.785156 199.894531 295.117188 207.476562 295.117188 215.929688 C 295.117188 223.65625 292.34375 230.214844 286.808594 235.753906 C 281.269531 241.289062 274.710938 244.0625 266.839844 244.0625 L 243.519531 244.0625 C 236.082031 244.0625 229.816406 241.4375 224.566406 236.1875 C 219.46875 230.941406 216.847656 224.671875 216.847656 217.386719 C 216.847656 209.953125 219.46875 203.6875 224.714844 198.4375 C 229.960938 193.191406 236.230469 190.714844 243.519531 190.714844 L 259.113281 190.714844 C 260.136719 190.714844 260.71875 191.148438 260.71875 192.171875 "/>
<path style=" stroke:none;fill-rule:nonzero;fill:rgb(0%,67.83905%,93.728638%);fill-opacity:1;" d="M 186.332031 207.777344 C 188.210938 209.277344 191.214844 210.90625 193.089844 212.53125 C 194.714844 214.40625 198.597656 216.910156 200.097656 218.660156 C 200.472656 218.660156 201.722656 219.785156 201.722656 219.785156 C 203.476562 220.410156 203.097656 220.914062 203.851562 221.789062 C 205.226562 223.164062 205.351562 224.667969 204.601562 225.667969 C 203.226562 227.796875 198.34375 224.289062 196.34375 222.539062 C 195.96875 222.289062 195.71875 222.289062 195.34375 222.289062 C 194.464844 221.789062 193.464844 221.414062 192.714844 220.914062 C 192.214844 220.410156 192.214844 220.039062 191.964844 219.660156 C 191.085938 219.785156 189.835938 218.660156 189.085938 218.410156 C 188.335938 217.785156 187.082031 218.035156 186.332031 217.28125 C 185.457031 216.285156 184.828125 216.035156 183.703125 215.535156 C 183.703125 215.03125 182.828125 214.28125 182.828125 214.28125 C 181.703125 214.03125 180.453125 213.78125 179.449219 213.28125 C 179.449219 213.28125 178.949219 212.90625 178.949219 212.65625 C 177.824219 211.652344 176.074219 211.527344 175.070312 210.527344 C 174.570312 209.777344 174.320312 208.273438 174.570312 207.273438 C 175.070312 205.523438 175.820312 203.519531 178.074219 202.019531 C 181.703125 201.769531 184.082031 205.523438 186.332031 207.777344 "/>
<path style=" stroke:none;fill-rule:nonzero;fill:rgb(0%,67.83905%,93.728638%);fill-opacity:1;" d="M 217.292969 422.917969 C 217.292969 427.808594 219.667969 430.617188 225.613281 434.238281 L 225.613281 434.207031 L 218.816406 434.207031 L 218.816406 453.746094 L 224.765625 453.746094 L 224.765625 448.640625 C 224.765625 446.101562 225.546875 445.253906 228.175781 445.253906 L 260.847656 444.996094 L 248.414062 434.355469 L 235.546875 434.207031 C 229.710938 434.207031 222.285156 430.464844 222.285156 423.039062 C 222.285156 421.679688 222.46875 420.261719 223.554688 419.261719 C 223.644531 422.523438 225.546875 425.257812 228.988281 425.257812 C 232.703125 425.257812 234.785156 422.363281 234.785156 418.832031 C 234.785156 414.398438 231.292969 411.953125 227.214844 411.953125 C 220.601562 411.953125 217.292969 417.121094 217.292969 422.917969 "/>
<path style=" stroke:none;fill-rule:nonzero;fill:rgb(0%,67.83905%,93.728638%);fill-opacity:1;" d="M 220.636719 362.105469 C 220.636719 358.765625 218.566406 356.136719 214.652344 354.519531 L 214.652344 348.472656 L 253.175781 348.472656 L 253.175781 355.554688 C 243.5 356.707031 236.171875 360.410156 230.472656 366.171875 Z M 220.636719 362.105469 "/>
<path style=" stroke:none;fill-rule:nonzero;fill:rgb(0%,67.83905%,93.728638%);fill-opacity:1;" d="M 191.261719 615.261719 L 191.261719 604.875 L 204.796875 604.875 L 204.796875 615.261719 Z M 191.261719 615.261719 "/>
<path style=" stroke:none;fill-rule:nonzero;fill:rgb(18.981934%,7.531738%,5.366516%);fill-opacity:1;" d="M 240.90625 604.757812 L 291.765625 604.757812 C 292.785156 604.757812 293.367188 605.339844 293.367188 606.359375 L 293.367188 613.796875 C 293.367188 614.960938 292.785156 615.398438 291.765625 615.398438 L 240.90625 615.398438 Z M 240.90625 604.757812 "/>
<path style=" stroke:none;fill-rule:nonzero;fill:rgb(0%,67.83905%,93.728638%);fill-opacity:1;" d="M 213.71875 606.253906 C 220.515625 609.839844 221.746094 613.460938 222.605469 623.65625 L 226.050781 623.65625 C 226.050781 621.105469 225.820312 616.820312 229.121094 615.671875 C 230.292969 615.28125 229.011719 615.390625 240.90625 615.398438 L 240.90625 604.757812 C 229.011719 604.757812 221.367188 604.386719 213.71875 603.238281 Z M 213.71875 606.253906 "/>
<path style=" stroke:none;fill-rule:nonzero;fill:rgb(0%,67.83905%,93.728638%);fill-opacity:1;" d="M 223.457031 528.429688 C 223.457031 523.660156 223.605469 523.660156 223.605469 522.171875 C 223.605469 521.125 222.5625 519.9375 220.921875 519.9375 C 219.433594 519.9375 218.390625 521.125 218.390625 522.171875 C 218.390625 523.660156 219.136719 524.558594 219.136719 534.238281 L 219.136719 534.6875 C 219.136719 544.820312 218.390625 545.117188 218.390625 546.609375 C 218.390625 547.796875 219.433594 548.992188 220.921875 548.992188 C 222.5625 548.992188 223.605469 547.796875 223.605469 546.609375 C 223.605469 545.117188 223.457031 544.96875 223.457031 539.902344 L 237.125 544.730469 L 243.945312 535.847656 Z M 223.457031 528.429688 "/>
<path style=" stroke:none;fill-rule:nonzero;fill:rgb(18.981934%,7.531738%,5.366516%);fill-opacity:1;" d="M 243.652344 472.675781 C 239.28125 472.675781 235.492188 474.132812 232.285156 477.339844 C 229.078125 480.546875 227.621094 484.335938 227.621094 488.710938 C 227.621094 493.082031 229.078125 496.875 232.285156 499.933594 C 235.492188 503.136719 239.28125 504.742188 243.652344 504.742188 L 248.609375 504.742188 C 249.632812 504.742188 250.210938 504.160156 250.210938 503.136719 L 250.210938 474.132812 C 250.210938 473.109375 249.632812 472.675781 248.609375 472.675781 Z M 262.871094 515.386719 L 243.652344 515.386719 C 236.21875 515.386719 229.953125 512.761719 224.703125 507.511719 C 219.601562 502.265625 216.980469 495.996094 216.980469 488.710938 C 216.980469 481.277344 219.601562 475.007812 224.851562 469.761719 C 230.097656 464.511719 236.367188 462.035156 243.652344 462.035156 L 259.25 462.035156 C 260.273438 462.035156 260.855469 462.46875 260.855469 463.492188 L 260.855469 503.136719 C 260.855469 504.160156 261.4375 504.742188 262.460938 504.742188 L 266.976562 504.742188 C 268.304688 504.742188 269.570312 504.617188 270.773438 504.367188 Z M 262.871094 515.386719 "/>
<path style=" stroke:none;fill-rule:nonzero;fill:rgb(0%,67.83905%,93.728638%);fill-opacity:1;" d="M 283.382812 494.089844 C 286.632812 488.792969 287.902344 482.605469 287.902344 477.351562 C 287.902344 466.929688 284.113281 462.191406 284.113281 461.242188 C 284.113281 460.457031 285.0625 460.457031 285.378906 460.457031 C 286.167969 460.457031 295.484375 472.457031 295.484375 485.246094 C 295.484375 498.195312 289.242188 515.386719 262.871094 515.386719 L 270.773438 504.367188 C 276.625 502.234375 280.679688 498.496094 283.382812 494.089844 "/>
<path style=" stroke:none;fill-rule:nonzero;fill:rgb(18.981934%,7.531738%,5.366516%);fill-opacity:1;" d="M 238.78125 282.128906 L 268.621094 282.128906 C 273.285156 282.128906 277.21875 280.527344 280.425781 277.320312 C 283.632812 274.113281 285.238281 270.179688 285.238281 265.511719 C 285.238281 261.722656 284.070312 257.785156 281.59375 253.851562 C 281.011719 252.832031 281.15625 252.25 282.03125 251.519531 L 288.007812 247.292969 C 288.882812 246.710938 289.609375 246.855469 290.195312 247.730469 C 293.984375 252.976562 295.878906 258.953125 295.878906 265.511719 C 295.878906 273.089844 293.253906 279.359375 287.859375 284.753906 C 282.46875 290.148438 276.199219 292.769531 268.621094 292.769531 L 235.089844 292.769531 Z M 238.78125 282.128906 "/>
<path style=" stroke:none;fill-rule:nonzero;fill:rgb(0%,67.83905%,93.728638%);fill-opacity:1;" d="M 235.101562 292.773438 L 229.421875 292.773438 C 229.140625 296.421875 229.421875 300.898438 230.824219 304.40625 L 230.121094 305.390625 C 225.347656 303.703125 222.117188 298.367188 222.117188 293.03125 C 220.710938 290.644531 207.613281 290.785156 205.226562 288.816406 C 204.246094 287.976562 202.417969 285.132812 200.589844 283.023438 C 202.136719 282.042969 220.851562 284.710938 221.273438 282.042969 C 222.957031 272.492188 223.382812 262.550781 220.570312 253.5625 C 221.976562 251.738281 223.664062 253.5625 224.925781 254.40625 C 231.949219 261.992188 229 272.296875 229.28125 282.128906 L 238.789062 282.128906 Z M 235.101562 292.773438 "/>
<path style=" stroke:none;fill-rule:nonzero;fill:rgb(0%,67.83905%,93.728638%);fill-opacity:1;" d="M 219.042969 755.410156 L 219.042969 776.253906 L 227.011719 776.253906 L 227.011719 766.0625 L 257.550781 766.0625 L 246.613281 755.421875 Z M 219.042969 755.410156 "/>
<path style=" stroke:none;fill-rule:nonzero;fill:rgb(18.981934%,7.531738%,5.366516%);fill-opacity:1;" d="M 273.238281 649.335938 L 243.289062 649.335938 C 239.0625 649.335938 235.421875 650.792969 232.503906 653.855469 C 229.445312 656.917969 227.984375 660.558594 227.984375 664.785156 C 227.984375 669.015625 229.445312 672.65625 232.503906 675.71875 C 235.421875 678.632812 239.0625 680.238281 243.289062 680.238281 L 291.976562 680.238281 C 292.992188 680.238281 293.574219 680.675781 293.574219 681.839844 L 293.574219 689.273438 C 293.574219 690.292969 292.992188 690.878906 291.976562 690.878906 L 243.289062 690.878906 C 236.148438 690.878906 230.023438 688.253906 224.925781 683.152344 C 219.820312 678.050781 217.34375 671.929688 217.34375 664.785156 C 217.34375 657.644531 219.820312 651.523438 224.925781 646.421875 C 230.023438 641.320312 236.148438 638.695312 243.289062 638.695312 L 267.386719 638.695312 Z M 273.238281 649.335938 "/>
<path style=" stroke:none;fill-rule:nonzero;fill:rgb(0%,67.83905%,93.728638%);fill-opacity:1;" d="M 288.617188 637.34375 C 285.390625 638.398438 275.515625 638.699219 267.390625 638.699219 L 273.238281 649.339844 L 284.695312 649.140625 C 289.480469 649.140625 293.429688 647.925781 296.546875 646.976562 C 294.152344 640.496094 292.09375 634.699219 290.367188 627.902344 L 286.613281 627.902344 C 287.839844 631.300781 288.507812 634.453125 288.617188 637.34375 "/>
</g>
</svg>
